<svg width="90" height="91" viewBox="0 0 90 91" fill="none" xmlns="http://www.w3.org/2000/svg">
<path d="M45 89C21.2518 89 2 69.7482 2 46C2 35.5084 5.75742 25.8944 12 18.4303L8.5 13.5V3L15.5 4.5L21.5 9.98368C28.2546 5.56743 36.3275 3 45 3C51.0382 3 56.7857 4.24458 62 6.4912L64.5 3L65 2.5L67.5 1.5L69 1L71.5 3.5L67.8091 9.5413C79.9365 17.1444 88 30.6305 88 46C88 69.7482 68.7482 89 45 89Z" fill="#A5FFEA"/>
<path d="M3 46C3 35.7189 6.69407 26.3006 12.8273 19M87 46C87 22.804 68.196 4 45 4C36.9335 4 29.3981 6.27403 23 10.216" stroke="black" stroke-width="6"/>
<path fill-rule="evenodd" clip-rule="evenodd" d="M68.6142 0H70.0679V1.42255H68.6142V0ZM70.0679 1.42255H71.4177V2.7943H70.0679V1.42255Z" fill="white"/>
<path d="M67.2643 1.42255H65.8107V2.7943H67.2643V1.42255Z" fill="white"/>
<path d="M12.7516 4.16605H10V2.7943H12.7516V4.16605Z" fill="white"/>
<path fill-rule="evenodd" clip-rule="evenodd" d="M57.6078 19.1028V16.461H58.9576V14.9368L53.2468 15.0384V16.461H51.8969V19.1028L35.2835 19.2045V17.6803H29.5727V16.461H28.119V15.0384H26.6653V13.7175H25.3155V12.3965H23.9656V10.974H22.512V8.23048H21.1621V6.90954H18.4105V5.48699H15.5551V4.16605H12.7516V9.65304H14.2053V13.7175H18.4105V15.0384H17.0088V19.2045H18.4105V21.7447H17.0088V23.2689H19.7085V24.5898H17.0088V25.9108H15.5551V27.3333H17.0088V32.7187H15.5551V36.8848H14.2053V39.5266H12.7516V46.5378H14.2053V50.5006H15.5551V51.8216H17.0088V55.886H18.4105V58.7311H19.7085V64.2181H22.512V61.373H23.9656V62.7955H33.726V64.2181H32.2723V65.539H30.9225V68.2825H33.726V69.7051H37.8794V68.2825H46.2899V66.86H47.6398V65.539H50.5471V64.2181H49.1973V62.7955H47.6398V60.1537H49.1973V58.7311H53.2468V55.886H56.0503V57.3086H58.9576V60.1537H61.5535V61.373H64.5647V60.1537H67.2643V61.373H65.8107V62.7955H70.0679V64.2181H67.2643V66.86H64.5647V68.2825H65.8107V69.7051H70.0679V72.347H68.6142V73.7695H72.7675V77.4337C77.8826 73.5289 82.0826 68.5296 85 62.7955H83.9816V58.7311H82.5279V57.3086H81.1781V54.5651H79.7244V53.2441H78.3746V51.8216H77.0247V50.5006H75.571V42.2701H74.2212V41.0508H75.571V36.8848H74.2212V32.7187H72.7675V27.3333H71.4177V25.9108H70.0679V27.3333H71.4177V30.0768H70.0679V34.0397H67.2643V31.4994H65.8107V28.6543H61.5535V27.3333H63.111V25.9108H60.3075V24.5898H57.6078V25.9108H56.0503V24.5898H54.7004V23.2689H53.2468V21.7447H54.7004V19.1028H53.2468V17.6803H54.7004V16.461H56.0503V19.1028H57.6078ZM23.9656 41.0508H17.0088V42.2701H15.5551V43.7435H17.0088V47.7571H18.4105V49.0781H23.9656V47.7571H25.3155V45.0136H23.9656V41.0508ZM43.5902 41.0508V39.5266H40.7867V42.2701H39.333V45.0136H40.7867V47.7571H39.333V49.0781H42.2404V50.5006H43.5902V51.8216H47.6398V50.5006H50.5471V49.0781H51.8969V43.7435H46.2899V42.2701H44.8362V41.0508H43.5902ZM71.4177 53.2441V51.8216H72.7675V53.2441H71.4177Z" fill="white"/>
<path d="M60.3075 19.1028V20.4238H57.6078V19.1028H60.3075Z" fill="white"/>
<path d="M60.3075 19.1028V17.6803H61.5535V19.1028H60.3075Z" fill="white"/>
<path d="M65.3553 82C67.7861 80.8187 70.0881 79.4215 72.2348 77.834H68.6142V79.1549H65.8107V80.5774H64.5647V82H65.3553Z" fill="white"/>
<path fill-rule="evenodd" clip-rule="evenodd" d="M65.8107 10.974H67.2643V9.65304H65.8107V8.23048H64.5647V6.90954H61.5535V5.48699H63.111V4.16605H64.5647V2.7943H63.111V4.16605H61.5535V5.48699H60.3075V6.90954H58.9576V8.23048L57 8.5L56.0503 10.974V12.3965H54.7004V13.7175H57.6078V12.3965H58.9576V13.7175H60.3075V14.9368H65.8107V13.7175H61.5535V12.3965H65.8107V10.974ZM58.9576 12.3965V10.974H60.3075V12.3965H58.9576ZM60.3075 8.23048V9.65304H58.9576V8.23048H60.3075ZM60.3075 8.23048H61.5535V6.90954H60.3075V8.23048ZM65.8107 10.974H64.5647V9.65304H65.8107V10.974Z" fill="white"/>
<path d="M63.111 23.2689V21.7447H58.9576V23.2689H63.111Z" fill="white"/>
<path d="M6.44766 0H11.8247V1.43256H14.6166V2.81395H17.4603V4.24651H18.7528V5.62791H20.2005H21.5447V6.95814L23 7L22.9924 8.3907V9.72093H24.3367V11.1535H25.6809V12.4837H27.1286V13.9163H28.5763V15.2465H29.9205V16.5767H31.2648V18.0093H32.7124V19.2372H28.5763V18.0093H27.1286V16.5767H25.6809V15.2465H24.3367V13.9163H22.9924V12.4837H21.5447V9.72093H20.2005V8.3907H17.4603V6.95814H14.6166V5.62791H11.8247V4.24651H9.08448V5.62791H11.8247V11.1535H13.2724V15.2465H17.4603V16.5767H16.0643V20.7721H17.4603V23.3302H16.0643V24.8651H18.7528V26.1953H16.0643V27.5256H14.6166V28.9581H16.0643V34.3814H14.6166V38.5767H13.2724V41.2372H11.8247V48.2977H13.2724V52.2884H14.6166V53.6186H16.0643V57.7116H17.4603V60.5767H18.7528V66.1023H17.4603V63.2372H16.0643V60.5767H14.6166V59.1442H13.2724V56.3814H11.8247V55.0512H10.5839V46.7628H9.08448V38.5767H10.5839V35.7116H11.8247V26.1953H10.5839V24.8651H9.08448V22H7.79193V16.5767H6.44766V8.3907H5V5.62791H6.44766V0Z" fill="black"/>
<path d="M71.5926 79.4109V75.7209H67.4564V74.2884H68.9041V71.6279H64.6645V70.1954H63.4236V68.7628H66.1121V66.1023H68.9041V64.6698H64.6645V63.2372H66.1121V62.0093H63.4236V63.2372H60.4249V62.0093H57.8398V59.1442H54.9444V57.7116H52.1525V60.5767H48.1197V62.0093H46.5687V64.6698H48.1197V66.1023H49.464V67.4326H46.5687V68.7628H45.2244V70.1954H36.8486V71.6279H32.7124V70.1954H29.9205V67.4326H31.2648V66.1023H32.7124V64.6698H22.9924V63.2372H21.5447V66.1023H18.7528V67.4326H20.2005V68.7628H22.9924V70.1954H24.3367V72.9581H25.6809V75.7209H24.3367V83.298C28.6924 85.6361 33.4986 87.2569 38.5935 88H51.3383C55.8992 87.3347 60.2288 85.9662 64.211 84.0093H63.4236V82.5767H64.6645V81.1442H67.4564V79.8139H71.0621C71.24 79.6809 71.4168 79.5466 71.5926 79.4109Z" fill="black"/>
<path fill-rule="evenodd" clip-rule="evenodd" d="M85 62.0093C84.6214 62.9121 84.2124 63.7993 83.7745 64.6698H82.7603V60.5767H81.3126V59.1442H79.9684V56.3814H78.5207V55.0512H77.1764V53.6186H75.8322V52.2884H74.3845V44H73.0403V42.7721H74.3845V38.5767H73.0403V34.3814H71.5926V28.9581H70.2483V27.5256H68.9041V28.9581H70.2483V31.7209H68.9041V35.7116H66.1121V33.1535H64.6645V30.2884H60.4249V28.9581H61.976V27.5256H59.184V26.1953H56.4955V27.5256H54.9444V26.1953H53.6002V24.8651H52.1525V23.3302H53.6002V20.6698H52.1525V19.2372H53.6002V18.0093H54.9444V20.6698H56.4955V22H59.184V20.6698H60.4249V19.2372H59.184V20.6698H56.4955V18.0093H57.8398V16.4744L52.1525 16.5767V18.0093H50.8083V20.6698L34.2635 20.7721V19.2372H42.5359V18.0093H49.464V15.2465H50.8083V13.9163H52.1525V12.4837H53.6002V11.1535H54.9444V9.72093H56.4955V12.4837H54.9444V13.9163H53.6002V15.2465H56.4955V13.9163H57.8398V15.2465H59.184V16.4744H64.6645V15.2465H60.4249V13.9163H64.6645V12.4837H66.1121V11.1535H64.6645V9.72093H63.4236V8.3907H60.4249V6.95814H61.976V5.62791H63.4236V4.24651H61.976V2.86512H64.6645V4.24651H66.1121V2.86512H64.6645V1.43256H67.4564V2.86512H68.9041V4.24651H70.2483V2.86512H68.9041V1.43256H67.4564V0.102326H70.2483V1.43256H71.5926V2.86512H73.0403V22H74.3845V33.1535H75.8322V48.2977H77.1764V50.8558H78.5207V52.2884H79.9684V55.0512H81.3126V56.3814H82.7603V59.1442H84.1046V62.0093H85ZM61.976 24.8651V23.3302H57.8398V24.8651H61.976Z" fill="black"/>
<path d="M60.4249 5.62791H61.976V4.24651H60.4249V5.62791Z" fill="black"/>
<path d="M59.184 6.95814H60.4249V5.62791H59.184V6.95814Z" fill="black"/>
<path fill-rule="evenodd" clip-rule="evenodd" d="M57.8398 8.3907V6.95814H59.184V8.3907H57.8398ZM59.184 8.3907H60.4249V9.72093H59.184V8.3907Z" fill="black"/>
<path fill-rule="evenodd" clip-rule="evenodd" d="M57.8398 9.72093H56.4955V8.3907H57.8398V9.72093ZM57.8398 9.72093H59.184V11.1535H57.8398V9.72093Z" fill="black"/>
<path d="M64.6645 11.1535H63.4236V12.4837H64.6645V11.1535Z" fill="black"/>
<path d="M57.8398 13.9163H59.184V12.4837H57.8398V13.9163Z" fill="black"/>
<path d="M42.5359 41.2372V42.7721H43.7767V44H45.2244V45.4837H50.8083V50.8558H49.464V52.2884H46.5687V53.6186H42.5359V52.2884H41.1916V50.8558H38.2963V49.5256H39.744V46.7628H38.2963V44H39.744V41.2372H42.5359Z" fill="black"/>
<path d="M16.0643 42.7721H22.9924V46.7628H24.3367V49.5256H22.9924V50.8558H17.4603V49.5256H16.0643V45.4837H14.6166V44H16.0643V42.7721Z" fill="black"/>
<path d="M70.2483 53.6186V55.0512H71.5926V53.6186H70.2483Z" fill="black"/>
<path d="M59.184 6.95814V5.62791H57.8398V6.95814H59.184Z" fill="black"/>
<path d="M60.4249 5.62791V4.24651H59.184V5.62791H60.4249Z" fill="black"/>
<path d="M61.976 4.24651V2.86512H60.4249V4.24651H61.976Z" fill="black"/>
<path d="M61.976 5.62791H63.4236V4.24651H61.976V5.62791Z" fill="black"/>
<path fill-rule="evenodd" clip-rule="evenodd" d="M50.2287 31.8368L67.6188 33.9935L67.3161 36.4342L78.2485 37.7901L77.6242 42.824L60.1832 40.661L58.2725 56.0681L56.086 55.7969L55.7644 58.3902L47.0693 57.3119L46.7666 59.7526L40.1055 58.9265L40.4082 56.4858L36.2004 55.8607L36.8373 50.725L38.9729 50.9898L38.645 53.6339L54.0521 55.5447L54.38 52.9006L56.4139 53.1528L58.3058 37.8983L40.8648 35.7353L40.5558 38.2269L36.2336 37.6909L35.2877 45.3181L32.9996 45.0344L33.2959 42.6445L31.1095 42.3733L30.1762 49.8989L27.9897 49.6277L27.0375 57.3058L24.851 57.0347L24.6618 58.5601L11.4921 56.9268L11.9965 52.859L14.2847 53.1427L13.9694 55.6851L22.6645 56.7635L22.9798 54.2211L25.1663 54.4922L27.077 39.0852L11.7208 37.1807L10.447 47.4521L8.3622 47.1936L8.99912 42.0579L8.28724 41.9696L8.92416 36.8339L9.63604 36.9222L9.94504 34.4306L18.7927 35.5279L19.1017 33.0363L38.7291 35.4705L39.0444 32.928L49.926 34.2776L50.2287 31.8368ZM10.447 47.4521L9.81007 52.5878L11.9965 52.859L12.6335 47.7233L10.447 47.4521ZM35.2877 45.3181L34.6508 50.4538L36.8373 50.725L37.4742 45.5893L35.2877 45.3181Z" fill="#F7F961"/>
<path d="M3 46C3 69.196 21.804 88 45 88C68.196 88 87 69.196 87 46" stroke="black" stroke-width="6"/>
</svg>
