<svg width="245" height="272" viewBox="0 0 245 272" fill="none" xmlns="http://www.w3.org/2000/svg">
<path d="M199.705 165.926V170.345H203.809V165.926H199.705Z" fill="black"/>
<path d="M34.2797 132.462H55.4314V144.774H59.5355V153.298H55.4314V157.402H38.5416V153.298H34.2797V140.828H29.8599V136.25H34.2797V132.462Z" fill="black"/>
<path d="M115.098 132.462V127.726H106.574V136.25H102.155V144.774H106.574V153.298H102.155V157.402H110.994V161.822H115.098V165.926H127.41V161.822H136.25V157.402H140.354V140.828H123.306V136.25H118.887V132.462H115.098Z" fill="black"/>
<path fill-rule="evenodd" clip-rule="evenodd" d="M89.8424 59.8512V64.5866L140.354 64.2709V56.0628H144.458V51.643L161.822 51.3273V56.0628H157.717V64.2709H152.982V56.0628H148.878V59.8512H144.458V64.2709H148.878V72.4791H144.458V77.2145H148.878V81.3186H152.982V85.4227H157.717V81.3186H165.926V85.4227H174.449V89.8424H169.714V93.9465H182.658V102.786H187.077V110.678H195.601V98.3663H199.705V89.8424H203.809V106.574H208.229V119.518H212.333V132.462H208.229V136.25H212.333V161.822H216.753V165.926H220.857V170.345H224.961V174.449H229.381V182.973H233.485V187.393H237.905V200.021H242.009V212.649H244.85V191.813H242.009V182.973H237.905V174.449H233.485V170.345H229.381V161.822H224.961V157.402H220.857V149.509H216.753V102.786H212.333V68.375H208.229V9.33953H203.809V4.91977H199.705V0.815698H191.181V4.91977H182.658V9.33953H174.449V13.6015H169.714V17.8634H165.926V21.9674H161.822V26.3872H157.717V30.4913H152.982V34.911H148.878V39.0151H144.458V43.4349H140.354V47.539H136.25V56.0628H115.098V59.8512H89.8424ZM161.822 30.4913H157.717V39.0151H152.982V43.4349H148.878V47.539H157.717V43.4349H161.822V47.539H165.926V51.3273H182.658V47.539H169.714V43.4349H182.658V39.0151H187.077V34.911H182.658V30.4913H178.869V26.3872H169.714V21.9674H174.449V17.8634H178.869V13.6015H174.449V17.8634H169.714V21.9674H165.926V26.3872H161.822V30.4913ZM165.926 30.4913V34.911H161.822V30.4913H165.926ZM165.926 30.4913H169.714V26.3872H165.926V30.4913ZM182.658 34.911H178.869V39.0151H182.658V34.911ZM161.822 43.4349H165.926V39.0151H161.822V43.4349ZM182.658 9.33953H187.077V13.6015H182.658V9.33953ZM195.601 9.33953H191.181V4.91977H195.601V9.33953ZM195.601 9.33953H199.705V13.6015H195.601V9.33953ZM199.705 89.8424V85.4227H195.601V89.8424H199.705ZM165.926 64.2709V68.375H157.717V64.2709H165.926ZM165.926 64.2709V59.8512H169.714V64.2709H165.926ZM174.449 77.2145V72.4791H161.822V77.2145H174.449Z" fill="black"/>
<path fill-rule="evenodd" clip-rule="evenodd" d="M21.336 0.5H4.91977V17.8634H0.5V26.3872H4.91977V51.643H9.02384V68.375H12.9701V77.2145H17.5477V81.3186H21.336V110.678H17.5477V119.518H12.9701V144.774H17.5477V170.345H21.336V174.449H25.7558V182.973H29.8599V187.393H34.2797V195.601H38.5416V204.441H42.4878V208.545H46.9076V212.649H55.4314V217.069H59.5355V225.592H63.6395V234.116H59.5355V272H199.705V267.896H212.333V263.792H208.229V259.688H203.809V263.792H191.181V259.688H178.869V255.268H182.658V250.848H191.181V246.744H203.809V234.116H191.181V229.697H195.601V221.488H182.658V217.069H178.869V212.649H187.077V204.441H195.601V200.021H182.658V195.601H187.077V191.813H178.869V195.601H169.714V191.813H161.822V182.973H152.982V178.553H144.458V187.393H132.146V191.813H127.41V200.021H132.146V204.441H136.25V208.545H127.41V212.649H123.306V217.069H97.7349V221.488H85.107V217.069H76.5831V208.545H80.6872V204.441H85.107V200.021H55.4314V195.601H51.0116V204.441H42.4878V187.393H38.5416V178.553H34.2797V165.926H29.8599V161.822H25.7558V149.509H21.336V127.726H25.7558V119.518H29.8599V106.574H34.2797V89.8424H29.8599V85.4227H34.2797V81.3186H42.4878V77.2145H34.2797V72.4791H38.5416V64.5866H34.2797V51.643H38.5416V47.539H25.7558V34.911H21.336V17.8634H29.8599V21.9674H38.5416V26.3872H46.9076V30.4913H51.0116V39.0151H55.4314V43.4349H59.5355V47.539H63.6395V51.643H68.0593V56.0628H72.4791V59.8512H85.107V56.0628H80.6872V51.643H76.5831V47.539H72.4791V43.4349H68.0593V39.0151H63.6395V34.911H59.5355V30.4913H55.4314V26.3872H51.0116V21.9674H46.9076V17.8634H42.4878V13.6015H38.5416V9.18169H29.8599V4.91977H21.336V0.5ZM21.336 17.8634H12.9701V13.6015H21.336V17.8634Z" fill="black"/>
<path fill-rule="evenodd" clip-rule="evenodd" d="M21.3361 17.8633H12.9701V13.6014H21.3361V17.8633Z" fill="white"/>
<path fill-rule="evenodd" clip-rule="evenodd" d="M182.658 39.0151H187.077V34.911H182.658V39.0151ZM199.705 89.8424V85.4226H195.601V89.8424H199.705ZM165.926 64.2709V68.375H157.717V64.2709H165.926ZM165.926 64.2709V59.8511H169.714V64.2709H165.926ZM174.449 77.2145V72.479H161.822V77.2145H174.449Z" fill="white"/>
<path d="M161.822 30.4913H157.717V39.0151H152.982V43.4349H148.878V47.5389H157.717V43.4349H161.822V39.0151H165.926V43.4349H161.822V47.5389H165.926V51.3273H182.658V47.5389H169.714V43.4349H182.658V39.0151H178.869V34.911H182.658V30.4913H178.869V26.3872H169.714V30.4913H165.926V34.911H161.822V30.4913Z" fill="white"/>
<path d="M165.926 26.3872H161.822V30.4913H165.926V26.3872Z" fill="white"/>
<path d="M169.714 21.9674H165.926V26.3872H169.714V21.9674Z" fill="white"/>
<path d="M174.449 17.8633H169.714V21.9674H174.449V17.8633Z" fill="white"/>
<path d="M174.449 13.6014V17.8633H178.869V13.6014H174.449Z" fill="white"/>
<path d="M187.077 9.33951H182.658V13.6014H187.077V9.33951Z" fill="white"/>
<path d="M195.601 4.91974H191.181V9.33951H195.601V4.91974Z" fill="white"/>
<path d="M199.705 9.33951H195.601V13.6014H199.705V9.33951Z" fill="white"/>
<path fill-rule="evenodd" clip-rule="evenodd" d="M72.4791 59.8511H85.107H89.8424V64.5866L140.354 64.2709V56.0628H144.458V51.643L161.822 51.3273V56.0628H157.717V64.2709H152.982V56.0628H148.878V59.8511H144.458V64.2709H148.878V72.479H144.458V77.2145H148.878V81.3186H152.982V85.4226H157.717V81.3186H165.926V85.4226H174.449V89.8424H169.714V93.9465H182.658V102.786H187.077V110.678H195.601V98.3662H199.705V89.8424H203.809V106.574H208.229V119.518H212.333V132.462H208.229V136.25H212.333V161.821H216.753V165.926H220.857V170.345H224.961V174.449H229.381V182.973H233.485V187.393H237.905V200.021H242.009V212.649H244.85V234.116H237.905V250.848H233.485V267.896H229.381V272H199.705V267.896H212.333V263.792H208.229V259.688H203.809V263.792H191.181V259.688H178.869V255.268H182.658V250.848H191.181V246.744H203.809V234.116H191.181V229.696H195.601V221.488H182.658V217.069H178.869V212.649H187.077V204.441H195.601V200.021H182.658V195.601H187.077V191.813H178.869V195.601H169.714V191.813H161.822V182.973H152.982V178.553H144.458V187.393H132.146V191.813H127.41V200.021H132.146V204.441H136.25V208.545H127.41V212.649H123.306V217.069H97.7349V221.488H85.107V217.069H76.5831V208.545H80.6872V204.441H85.107V200.021H55.4314V195.601H51.0116V204.441H42.4878V187.393H38.5416V178.553H34.2797V165.926H29.8599V161.821H25.7558V149.509H21.3361V127.726H25.7558V119.518H29.8599V106.574H34.2797V89.8424H29.8599V85.4226H34.2797V81.3186H42.4878V77.2145H34.2797V72.479H38.5416V64.5866H34.2797V51.643H38.5416V47.5389H25.7558V34.911H21.3361V17.8633H29.8599V21.9674H38.5416V26.3872H46.9076V30.4913H51.0116V39.0151H55.4314V43.4349H59.5355V47.5389H63.6395V51.643H68.0593V56.0628H72.4791V59.8511ZM34.2797 132.462H55.4314V144.774H59.5355V153.298H55.4314V157.402H38.5416V153.298H34.2797V140.828H29.8599V136.25H34.2797V132.462ZM115.098 127.726V132.462H118.887V136.25H123.306V140.828H140.354V157.402H136.25V161.821H127.41V165.926H115.098V161.821H110.994V157.402H102.155V153.298H106.574V144.774H102.155V136.25H106.574V127.726H115.098ZM199.705 165.926V170.345H203.809V165.926H199.705Z" fill="white"/>
<path fill-rule="evenodd" clip-rule="evenodd" d="M138.818 98.0479L192.392 104.692L191.46 112.211L225.139 116.388L223.216 131.896L169.485 125.233L163.599 172.697L156.863 171.862L155.872 179.851L129.085 176.529L128.153 184.048L107.632 181.503L108.564 173.984L95.6011 172.058L97.5633 156.237L104.143 157.053L103.132 165.198L150.597 171.085L151.607 162.939L157.873 163.716L163.701 116.722L109.971 110.058L109.019 117.734L95.7036 116.082L92.7895 139.58L85.7403 138.706L86.6534 131.343L79.9175 130.508L77.0423 153.692L70.3064 152.856L67.3729 176.51L60.637 175.675L60.0541 180.374L19.4821 175.343L21.0363 162.811L28.0855 163.685L27.1141 171.518L53.9011 174.84L54.8724 167.007L61.6083 167.843L67.4948 120.378L20.1868 114.511L16.2625 146.154L9.83994 145.357L11.8021 129.536L9.60901 129.264L11.5712 113.442L13.7642 113.714L14.7162 106.039L41.9731 109.419L42.925 101.743L103.391 109.242L104.363 101.41L137.886 105.567L138.818 98.0479ZM16.2625 146.154L14.3004 161.975L21.0363 162.811L22.9984 146.989L16.2625 146.154ZM92.7895 139.58L90.8274 155.401L97.5633 156.237L99.5254 140.415L92.7895 139.58Z" fill="#F7F961"/>
</svg>
