<svg width="680" height="680" viewBox="0 0 680 680" fill="none" xmlns="http://www.w3.org/2000/svg">
<g clip-path="url(#clip0)">
<rect width="680" height="680" fill="url(#paint0_linear)"/>
<mask id="path-1-inside-1" fill="white">
<path d="M680 0H595H510H425H340H255H170H85H0H-85H-170H-255L0 146.571V171H42.5H85H127.5H170H212.5H255H297.5H340H382.5H425H467.5H510H552.5H595H637.5H680V146.571L935 0H850H765H680Z"/>
</mask>
<path d="M680 0L679.291 -0.705032L681 -2.42426V0H680ZM0 0H-1V-2.42426L0.709183 -0.705032L0 0ZM0 146.571L-0.498337 147.438L-1 147.15V146.571H0ZM680 146.571H681V147.15L680.498 147.438L680 146.571ZM0 84.5H21.25V86.5H0V84.5ZM21.25 84.5H85V86.5H21.25V84.5ZM85 84.5H148.75V86.5H85V84.5ZM148.75 84.5H212.5V86.5H148.75V84.5ZM212.5 84.5H276.25V86.5H212.5V84.5ZM276.25 84.5H340V86.5H276.25V84.5ZM340 84.5H403.75V86.5H340V84.5ZM403.75 84.5H467.5V86.5H403.75V84.5ZM467.5 84.5H531.25V86.5H467.5V84.5ZM531.25 84.5H595V86.5H531.25V84.5ZM595 84.5H658.75V86.5H595V84.5ZM658.75 84.5H680V86.5H658.75V84.5ZM679 85.5V68.4H681V85.5H679ZM679 68.4V42.75H681V68.4H679ZM679 42.75V0H681V42.75H679ZM1 0V42.75H-1V0H1ZM1 42.75V68.4H-1V42.75H1ZM1 68.4V85.5H-1V68.4H1ZM680 43.75H637.5V41.75H680V43.75ZM637.5 43.75H563.125V41.75H637.5V43.75ZM563.125 43.75H488.75V41.75H563.125V43.75ZM488.75 43.75H414.375V41.75H488.75V43.75ZM414.375 43.75H340V41.75H414.375V43.75ZM340 43.75H265.625V41.75H340V43.75ZM265.625 43.75H191.25V41.75H265.625V43.75ZM191.25 43.75H116.875V41.75H191.25V43.75ZM116.875 43.75H42.5V41.75H116.875V43.75ZM42.5 43.75H0V41.75H42.5V43.75ZM1 85.5V114H-1V85.5H1ZM1 114V128.25H-1V114H1ZM1 128.25V146.571H-1V128.25H1ZM679 146.571V128.25H681V146.571H679ZM679 128.25V114H681V128.25H679ZM679 114V85.5H681V114H679ZM0 127.25H21.25V129.25H0V127.25ZM21.25 127.25H74.375V129.25H21.25V127.25ZM74.375 127.25H127.5V129.25H74.375V127.25ZM127.5 127.25H180.625V129.25H127.5V127.25ZM180.625 127.25H233.75V129.25H180.625V127.25ZM233.75 127.25H286.875V129.25H233.75V127.25ZM286.875 127.25H340V129.25H286.875V127.25ZM340 127.25H393.125V129.25H340V127.25ZM393.125 127.25H446.25V129.25H393.125V127.25ZM446.25 127.25H499.375V129.25H446.25V127.25ZM499.375 127.25H552.5V129.25H499.375V127.25ZM552.5 127.25H605.625V129.25H552.5V127.25ZM605.625 127.25H658.75V129.25H605.625V127.25ZM658.75 127.25H680V129.25H658.75V127.25ZM341 0V42.75H339V0H341ZM341 42.75V85.5H339V42.75H341ZM341 85.5V128.25H339V85.5H341ZM341 128.25V171H339V128.25H341ZM255.97 -0.241196L266.595 42.5088L264.655 42.9912L254.03 0.241196L255.97 -0.241196ZM266.595 42.5088L277.22 85.2588L275.28 85.7412L264.655 42.9912L266.595 42.5088ZM277.22 85.2588L287.845 128.009L285.905 128.491L275.28 85.7412L277.22 85.2588ZM287.845 128.009L298.47 170.759L296.53 171.241L285.905 128.491L287.845 128.009ZM170.895 -0.445114L192.145 42.3049L190.355 43.1951L169.105 0.445114L170.895 -0.445114ZM192.145 42.3049L213.395 85.0549L211.605 85.9451L190.355 43.1951L192.145 42.3049ZM213.395 85.0549L234.645 127.805L232.855 128.695L211.605 85.9451L213.395 85.0549ZM234.645 127.805L255.895 170.555L254.105 171.445L232.855 128.695L234.645 127.805ZM85.8017 -0.597748L117.677 42.1523L116.073 43.3477L84.1983 0.597748L85.8017 -0.597748ZM117.677 42.1523L149.552 84.9023L147.948 86.0977L116.073 43.3477L117.677 42.1523ZM149.552 84.9023L181.427 127.652L179.823 128.848L147.948 86.0977L149.552 84.9023ZM181.427 127.652L213.302 170.402L211.698 171.598L179.823 128.848L181.427 127.652ZM425.97 0.241196L415.345 42.9912L413.405 42.5088L424.03 -0.241196L425.97 0.241196ZM415.345 42.9912L404.72 85.7412L402.78 85.2588L413.405 42.5088L415.345 42.9912ZM404.72 85.7412L394.095 128.491L392.155 128.009L402.78 85.2588L404.72 85.7412ZM394.095 128.491L383.47 171.241L381.53 170.759L392.155 128.009L394.095 128.491ZM510.895 0.445114L489.645 43.1951L487.855 42.3049L509.105 -0.445114L510.895 0.445114ZM489.645 43.1951L468.395 85.9451L466.605 85.0549L487.855 42.3049L489.645 43.1951ZM468.395 85.9451L447.145 128.695L445.355 127.805L466.605 85.0549L468.395 85.9451ZM447.145 128.695L425.895 171.445L424.105 170.555L445.355 127.805L447.145 128.695ZM595.802 0.597748L563.927 43.3477L562.323 42.1523L594.198 -0.597748L595.802 0.597748ZM563.927 43.3477L532.052 86.0977L530.448 84.9023L562.323 42.1523L563.927 43.3477ZM532.052 86.0977L500.177 128.848L498.573 127.652L530.448 84.9023L532.052 86.0977ZM500.177 128.848L468.302 171.598L466.698 170.402L498.573 127.652L500.177 128.848ZM680.709 0.705032L638.209 43.455L636.791 42.045L679.291 -0.705032L680.709 0.705032ZM638.209 43.455L595.709 86.205L594.291 84.795L636.791 42.045L638.209 43.455ZM595.709 86.205L553.209 128.955L551.791 127.545L594.291 84.795L595.709 86.205ZM553.209 128.955L510.709 171.705L509.291 170.295L551.791 127.545L553.209 128.955ZM0.709183 -0.705032L43.2092 42.045L41.7908 43.455L-0.709183 0.705032L0.709183 -0.705032ZM43.2092 42.045L85.7092 84.795L84.2908 86.205L41.7908 43.455L43.2092 42.045ZM85.7092 84.795L128.209 127.545L126.791 128.955L84.2908 86.205L85.7092 84.795ZM128.209 127.545L170.709 170.295L169.291 171.705L126.791 128.955L128.209 127.545ZM126.873 171.779L73.7481 129.029L75.0019 127.471L128.127 170.221L126.873 171.779ZM73.7481 129.029L20.6231 86.2791L21.8769 84.7209L75.0019 127.471L73.7481 129.029ZM20.6231 86.2791L-0.626923 69.1791L0.626923 67.6209L21.8769 84.7209L20.6231 86.2791ZM-0.626923 69.1791L-85.6269 0.779083L-84.3731 -0.779083L0.626923 67.6209L-0.626923 69.1791ZM84.4431 171.831L20.6931 129.081L21.8069 127.419L85.5569 170.169L84.4431 171.831ZM20.6931 129.081L-0.556946 114.831L0.556946 113.169L21.8069 127.419L20.6931 129.081ZM-0.556946 114.831L-170.557 0.830551L-169.443 -0.830551L0.556946 113.169L-0.556946 114.831ZM42.0017 171.867L-0.498337 147.438L0.498337 145.704L42.9983 170.133L42.0017 171.867ZM551.873 170.221L604.998 127.471L606.252 129.029L553.127 171.779L551.873 170.221ZM604.998 127.471L658.123 84.7209L659.377 86.2791L606.252 129.029L604.998 127.471ZM658.123 84.7209L679.373 67.6209L680.627 69.1791L659.377 86.2791L658.123 84.7209ZM679.373 67.6209L764.373 -0.779083L765.627 0.779083L680.627 69.1791L679.373 67.6209ZM594.443 170.169L658.193 127.419L659.307 129.081L595.557 171.831L594.443 170.169ZM658.193 127.419L679.443 113.169L680.557 114.831L659.307 129.081L658.193 127.419ZM679.443 113.169L849.443 -0.830551L850.557 0.830551L680.557 114.831L679.443 113.169ZM637.002 170.133L679.502 145.704L680.498 147.438L637.998 171.867L637.002 170.133ZM0 146.571L0.996674 144.837L2 145.414V146.571H0ZM0 171V173H-2V171H0ZM680 171H682V173H680V171ZM680 146.571H678V145.414L679.003 144.837L680 146.571ZM-255 0L-255.997 1.73396L-262.493 -2H-255V0ZM935 0V-2H942.493L935.997 1.73396L935 0ZM680 2H595V-2H680V2ZM595 2H510V-2H595V2ZM510 2H425V-2H510V2ZM425 2H340V-2H425V2ZM340 2H255V-2H340V2ZM255 2H170V-2H255V2ZM170 2H85V-2H170V2ZM85 2H0V-2H85V2ZM2 146.571V171H-2V146.571H2ZM678 171V146.571H682V171H678ZM0 169H42.5V173H0V169ZM42.5 169H85V173H42.5V169ZM85 169H127.5V173H85V169ZM127.5 169H170V173H127.5V169ZM170 169H212.5V173H170V169ZM212.5 169H255V173H212.5V169ZM255 169H297.5V173H255V169ZM297.5 169H340V173H297.5V169ZM340 169H382.5V173H340V169ZM382.5 169H425V173H382.5V169ZM425 169H467.5V173H425V169ZM467.5 169H510V173H467.5V169ZM510 169H552.5V173H510V169ZM552.5 169H595V173H552.5V169ZM595 169H637.5V173H595V169ZM637.5 169H680V173H637.5V169ZM-255 -2H-170V2H-255V-2ZM-170 -2H-85V2H-170V-2ZM-85 -2H0V2H-85V-2ZM-0.996674 148.305L-255.997 1.73396L-254.003 -1.73396L0.996674 144.837L-0.996674 148.305ZM680 -2H765V2H680V-2ZM765 -2H850V2H765V-2ZM850 -2H935V2H850V-2ZM679.003 144.837L934.003 -1.73396L935.997 1.73396L680.997 148.305L679.003 144.837Z" fill="url(#paint1_linear)" mask="url(#path-1-inside-1)"/>
<mask id="path-3-inside-2" fill="white">
<path d="M680 680H595H510H425H340H255H170H85H0H-85H-170H-255L0 533.429V509H42.5H85H127.5H170H212.5H255H297.5H340H382.5H425H467.5H510H552.5H595H637.5H680V533.429L935 680H850H765H680Z"/>
</mask>
<path d="M680 680L679.291 680.705L681 682.424V680H680ZM0 680H-1V682.424L0.709183 680.705L0 680ZM0 533.429L-0.498337 532.562L-1 532.85V533.429H0ZM680 533.429H681V532.85L680.498 532.562L680 533.429ZM0 595.5H21.25V593.5H0V595.5ZM21.25 595.5H85V593.5H21.25V595.5ZM85 595.5H148.75V593.5H85V595.5ZM148.75 595.5H212.5V593.5H148.75V595.5ZM212.5 595.5H276.25V593.5H212.5V595.5ZM276.25 595.5H340V593.5H276.25V595.5ZM340 595.5H403.75V593.5H340V595.5ZM403.75 595.5H467.5V593.5H403.75V595.5ZM467.5 595.5H531.25V593.5H467.5V595.5ZM531.25 595.5H595V593.5H531.25V595.5ZM595 595.5H658.75V593.5H595V595.5ZM658.75 595.5H680V593.5H658.75V595.5ZM679 594.5V611.6H681V594.5H679ZM679 611.6V637.25H681V611.6H679ZM679 637.25V680H681V637.25H679ZM1 680V637.25H-1V680H1ZM1 637.25V611.6H-1V637.25H1ZM1 611.6V594.5H-1V611.6H1ZM680 636.25H637.5V638.25H680V636.25ZM637.5 636.25H563.125V638.25H637.5V636.25ZM563.125 636.25H488.75V638.25H563.125V636.25ZM488.75 636.25H414.375V638.25H488.75V636.25ZM414.375 636.25H340V638.25H414.375V636.25ZM340 636.25H265.625V638.25H340V636.25ZM265.625 636.25H191.25V638.25H265.625V636.25ZM191.25 636.25H116.875V638.25H191.25V636.25ZM116.875 636.25H42.5V638.25H116.875V636.25ZM42.5 636.25H0V638.25H42.5V636.25ZM1 594.5V566H-1V594.5H1ZM1 566V551.75H-1V566H1ZM1 551.75V533.429H-1V551.75H1ZM679 533.429V551.75H681V533.429H679ZM679 551.75V566H681V551.75H679ZM679 566V594.5H681V566H679ZM0 552.75H21.25V550.75H0V552.75ZM21.25 552.75H74.375V550.75H21.25V552.75ZM74.375 552.75H127.5V550.75H74.375V552.75ZM127.5 552.75H180.625V550.75H127.5V552.75ZM180.625 552.75H233.75V550.75H180.625V552.75ZM233.75 552.75H286.875V550.75H233.75V552.75ZM286.875 552.75H340V550.75H286.875V552.75ZM340 552.75H393.125V550.75H340V552.75ZM393.125 552.75H446.25V550.75H393.125V552.75ZM446.25 552.75H499.375V550.75H446.25V552.75ZM499.375 552.75H552.5V550.75H499.375V552.75ZM552.5 552.75H605.625V550.75H552.5V552.75ZM605.625 552.75H658.75V550.75H605.625V552.75ZM658.75 552.75H680V550.75H658.75V552.75ZM341 680V637.25H339V680H341ZM341 637.25V594.5H339V637.25H341ZM341 594.5V551.75H339V594.5H341ZM341 551.75V509H339V551.75H341ZM255.97 680.241L266.595 637.491L264.655 637.009L254.03 679.759L255.97 680.241ZM266.595 637.491L277.22 594.741L275.28 594.259L264.655 637.009L266.595 637.491ZM277.22 594.741L287.845 551.991L285.905 551.509L275.28 594.259L277.22 594.741ZM287.845 551.991L298.47 509.241L296.53 508.759L285.905 551.509L287.845 551.991ZM170.895 680.445L192.145 637.695L190.355 636.805L169.105 679.555L170.895 680.445ZM192.145 637.695L213.395 594.945L211.605 594.055L190.355 636.805L192.145 637.695ZM213.395 594.945L234.645 552.195L232.855 551.305L211.605 594.055L213.395 594.945ZM234.645 552.195L255.895 509.445L254.105 508.555L232.855 551.305L234.645 552.195ZM85.8017 680.598L117.677 637.848L116.073 636.652L84.1983 679.402L85.8017 680.598ZM117.677 637.848L149.552 595.098L147.948 593.902L116.073 636.652L117.677 637.848ZM149.552 595.098L181.427 552.348L179.823 551.152L147.948 593.902L149.552 595.098ZM181.427 552.348L213.302 509.598L211.698 508.402L179.823 551.152L181.427 552.348ZM425.97 679.759L415.345 637.009L413.405 637.491L424.03 680.241L425.97 679.759ZM415.345 637.009L404.72 594.259L402.78 594.741L413.405 637.491L415.345 637.009ZM404.72 594.259L394.095 551.509L392.155 551.991L402.78 594.741L404.72 594.259ZM394.095 551.509L383.47 508.759L381.53 509.241L392.155 551.991L394.095 551.509ZM510.895 679.555L489.645 636.805L487.855 637.695L509.105 680.445L510.895 679.555ZM489.645 636.805L468.395 594.055L466.605 594.945L487.855 637.695L489.645 636.805ZM468.395 594.055L447.145 551.305L445.355 552.195L466.605 594.945L468.395 594.055ZM447.145 551.305L425.895 508.555L424.105 509.445L445.355 552.195L447.145 551.305ZM595.802 679.402L563.927 636.652L562.323 637.848L594.198 680.598L595.802 679.402ZM563.927 636.652L532.052 593.902L530.448 595.098L562.323 637.848L563.927 636.652ZM532.052 593.902L500.177 551.152L498.573 552.348L530.448 595.098L532.052 593.902ZM500.177 551.152L468.302 508.402L466.698 509.598L498.573 552.348L500.177 551.152ZM680.709 679.295L638.209 636.545L636.791 637.955L679.291 680.705L680.709 679.295ZM638.209 636.545L595.709 593.795L594.291 595.205L636.791 637.955L638.209 636.545ZM595.709 593.795L553.209 551.045L551.791 552.455L594.291 595.205L595.709 593.795ZM553.209 551.045L510.709 508.295L509.291 509.705L551.791 552.455L553.209 551.045ZM0.709183 680.705L43.2092 637.955L41.7908 636.545L-0.709183 679.295L0.709183 680.705ZM43.2092 637.955L85.7092 595.205L84.2908 593.795L41.7908 636.545L43.2092 637.955ZM85.7092 595.205L128.209 552.455L126.791 551.045L84.2908 593.795L85.7092 595.205ZM128.209 552.455L170.709 509.705L169.291 508.295L126.791 551.045L128.209 552.455ZM126.873 508.221L73.7481 550.971L75.0019 552.529L128.127 509.779L126.873 508.221ZM73.7481 550.971L20.6231 593.721L21.8769 595.279L75.0019 552.529L73.7481 550.971ZM20.6231 593.721L-0.626923 610.821L0.626923 612.379L21.8769 595.279L20.6231 593.721ZM-0.626923 610.821L-85.6269 679.221L-84.3731 680.779L0.626923 612.379L-0.626923 610.821ZM84.4431 508.169L20.6931 550.919L21.8069 552.581L85.5569 509.831L84.4431 508.169ZM20.6931 550.919L-0.556946 565.169L0.556946 566.831L21.8069 552.581L20.6931 550.919ZM-0.556946 565.169L-170.557 679.169L-169.443 680.831L0.556946 566.831L-0.556946 565.169ZM42.0017 508.133L-0.498337 532.562L0.498337 534.296L42.9983 509.867L42.0017 508.133ZM551.873 509.779L604.998 552.529L606.252 550.971L553.127 508.221L551.873 509.779ZM604.998 552.529L658.123 595.279L659.377 593.721L606.252 550.971L604.998 552.529ZM658.123 595.279L679.373 612.379L680.627 610.821L659.377 593.721L658.123 595.279ZM679.373 612.379L764.373 680.779L765.627 679.221L680.627 610.821L679.373 612.379ZM594.443 509.831L658.193 552.581L659.307 550.919L595.557 508.169L594.443 509.831ZM658.193 552.581L679.443 566.831L680.557 565.169L659.307 550.919L658.193 552.581ZM679.443 566.831L849.443 680.831L850.557 679.169L680.557 565.169L679.443 566.831ZM637.002 509.867L679.502 534.296L680.498 532.562L637.998 508.133L637.002 509.867ZM0 533.429L0.996674 535.163L2 534.586V533.429H0ZM0 509V507H-2V509H0ZM680 509H682V507H680V509ZM680 533.429H678V534.586L679.003 535.163L680 533.429ZM-255 680L-255.997 678.266L-262.493 682H-255V680ZM935 680V682H942.493L935.997 678.266L935 680ZM680 678H595V682H680V678ZM595 678H510V682H595V678ZM510 678H425V682H510V678ZM425 678H340V682H425V678ZM340 678H255V682H340V678ZM255 678H170V682H255V678ZM170 678H85V682H170V678ZM85 678H0V682H85V678ZM2 533.429V509H-2V533.429H2ZM678 509V533.429H682V509H678ZM0 511H42.5V507H0V511ZM42.5 511H85V507H42.5V511ZM85 511H127.5V507H85V511ZM127.5 511H170V507H127.5V511ZM170 511H212.5V507H170V511ZM212.5 511H255V507H212.5V511ZM255 511H297.5V507H255V511ZM297.5 511H340V507H297.5V511ZM340 511H382.5V507H340V511ZM382.5 511H425V507H382.5V511ZM425 511H467.5V507H425V511ZM467.5 511H510V507H467.5V511ZM510 511H552.5V507H510V511ZM552.5 511H595V507H552.5V511ZM595 511H637.5V507H595V511ZM637.5 511H680V507H637.5V511ZM-255 682H-170V678H-255V682ZM-170 682H-85V678H-170V682ZM-85 682H0V678H-85V682ZM-0.996674 531.695L-255.997 678.266L-254.003 681.734L0.996674 535.163L-0.996674 531.695ZM680 682H765V678H680V682ZM765 682H850V678H765V682ZM850 682H935V678H850V682ZM679.003 535.163L934.003 681.734L935.997 678.266L680.997 531.695L679.003 535.163Z" fill="url(#paint2_linear)" mask="url(#path-3-inside-2)"/>
</g>
<defs>
<linearGradient id="paint0_linear" x1="340" y1="0" x2="340" y2="680" gradientUnits="userSpaceOnUse">
<stop offset="0.485701"/>
<stop offset="1" stop-color="#651E6D"/>
</linearGradient>
<linearGradient id="paint1_linear" x1="340" y1="171" x2="340" y2="0" gradientUnits="userSpaceOnUse">
<stop offset="0.350285" stop-color="#482248" stop-opacity="0"/>
<stop offset="0.714868" stop-color="#87317E"/>
<stop offset="1" stop-color="#F5C890"/>
</linearGradient>
<linearGradient id="paint2_linear" x1="340" y1="509" x2="340" y2="680" gradientUnits="userSpaceOnUse">
<stop stop-color="#482248" stop-opacity="0"/>
<stop offset="0.256535" stop-color="#87317E"/>
<stop offset="1" stop-color="#8CE3FF" stop-opacity="0"/>
</linearGradient>
<clipPath id="clip0">
<rect width="680" height="680" fill="white"/>
</clipPath>
</defs>
</svg>
