<svg width="459" height="325" viewBox="0 0 459 325" fill="none" xmlns="http://www.w3.org/2000/svg">
<g clip-path="url(#clip0)">
<path d="M394.897 56.8957H64.1029Z" fill="url(#paint0_linear)"/>
<path d="M394.897 56.8957H64.1029L47.7858 239.303H411.214L394.897 56.8957Z" fill="url(#paint1_linear)"/>
<path d="M394.897 56.8957H64.1029Z" stroke="black" stroke-linejoin="round"/>
<path d="M394.897 56.8957H64.1029L47.7858 239.303H411.214L394.897 56.8957Z" stroke="black" stroke-linejoin="round"/>
<path d="M11.6335 294.62H447.367Z" fill="#9DE3DB"/>
<path d="M394.897 56.8957H64.1029Z" fill="#9DE3DB"/>
<path d="M40.1416 245.257H40.8023Z" fill="#9DE3DB"/>
<path d="M64.1029 56.8957L63.9724 56.8633L57.7937 55.3361L40.1416 245.257L47.7859 239.303L64.1029 56.8957Z" fill="#9DE3DB"/>
<path d="M43.1885 244.142L40.8023 245.257L40.296 245.493L39.3129 245.952L1.19922 301.203L11.6335 294.62L20.6504 281.195L43.1885 244.142Z" fill="#9DE3DB"/>
<path d="M447.367 294.62H11.6335L1.19922 301.203H457.801L447.367 294.62Z" fill="#9DE3DB"/>
<path d="M1.19922 301.203L2.65805 323.598H456.342L457.801 301.203H1.19922Z" fill="#9DE3DB"/>
<path d="M417.036 244.714L43.1885 244.142L20.6504 281.195L11.6335 294.62H447.367L439.515 282.929L417.036 244.714Z" fill="#9DE3DB"/>
<path d="M40.8023 245.257L43.1885 244.142L417.036 244.714L418.198 245.257L418.704 245.493L418.858 245.257L411.214 239.303H47.7859L40.1416 245.257H40.8023Z" fill="#9DE3DB"/>
<path d="M419.687 245.952L418.704 245.493L418.198 245.257L417.036 244.714L439.515 282.929L447.367 294.62L457.801 301.203L419.687 245.952Z" fill="#9DE3DB"/>
<path d="M401.206 55.3361L401.076 55.3682L394.897 56.8957L411.214 239.303L418.858 245.257L401.206 55.3361Z" fill="#9DE3DB"/>
<path d="M63.9724 56.8633L64.1029 56.8957H394.897L401.076 55.3682L401.206 55.3361H57.7937L63.9724 56.8633Z" fill="#9DE3DB"/>
<path d="M11.6335 294.62H447.367M11.6335 294.62L1.19922 301.203M11.6335 294.62L20.6504 281.195L43.1885 244.142M447.367 294.62L457.801 301.203M447.367 294.62L439.515 282.929L417.036 244.714M457.801 301.203L456.342 323.598H2.65805L1.19922 301.203M457.801 301.203L419.687 245.952L418.704 245.493M457.801 301.203H1.19922M43.1885 244.142L40.8023 245.257M43.1885 244.142L417.036 244.714M40.8023 245.257L40.296 245.493M40.8023 245.257H40.1416M40.296 245.493L39.3129 245.952L1.19922 301.203M40.296 245.493L40.1416 245.257M418.704 245.493L418.198 245.257L417.036 244.714M418.704 245.493L418.858 245.257M394.897 56.8957H64.1029M394.897 56.8957L411.214 239.303M394.897 56.8957L401.076 55.3682L401.206 55.3361M64.1029 56.8957L63.9724 56.8633L57.7937 55.3361M64.1029 56.8957L47.7859 239.303M57.7937 55.3361H401.206M57.7937 55.3361L40.1416 245.257M47.7859 239.303L40.1416 245.257M47.7859 239.303H411.214M411.214 239.303L418.858 245.257M401.206 55.3361L418.858 245.257" stroke="black" stroke-linejoin="round"/>
<path d="M64.6124 233.659L61.4198 235.258Z" fill="#ECAFE2"/>
<path d="M91.2356 233.659L88.4213 235.144L88.2049 235.258" fill="#ECAFE2"/>
<path d="M117.859 233.659L115.079 235.208L114.99 235.258" fill="#ECAFE2"/>
<path d="M64.6124 233.659L63.4362 232.079L58.6339 231.43L52.9825 232.079L49.7389 233.659L50.8391 235.258L55.6923 235.926L61.4198 235.258L64.6124 233.659Z" fill="#ECAFE2"/>
<path d="M55.6923 235.926L50.8391 235.258L51.1675 241.824H55.9794L55.6923 235.926Z" fill="#ECAFE2"/>
<path d="M61.4198 235.258L55.6923 235.926L55.9794 241.824L61.8268 243.899L61.4198 235.258Z" fill="#ECAFE2"/>
<path d="M64.8759 239.368L64.8728 239.303L64.6124 233.659L61.4198 235.258L61.8268 243.899V251.345L65.3123 248.821L64.8759 239.368Z" fill="#ECAFE2"/>
<path d="M50.8391 235.258L49.7389 233.659L50.1498 241.824H51.1675L50.8391 235.258Z" fill="#ECAFE2"/>
<path d="M77.6239 235.258L76.3624 233.659L76.7124 241.824H77.9033L77.6239 235.258Z" fill="#ECAFE2"/>
<path d="M82.5449 235.926L77.6239 235.258L77.9033 241.824H82.7877L82.5449 235.926Z" fill="#ECAFE2"/>
<path d="M88.2049 235.258L82.5449 235.926L82.7877 241.824H88.4646L88.2049 235.258Z" fill="#ECAFE2"/>
<path d="M91.4564 239.367L91.4542 239.303L91.2356 233.659L88.4213 235.144L88.2049 235.258L88.4646 241.824V251.345L91.8224 248.821L91.4564 239.367Z" fill="#ECAFE2"/>
<path d="M91.2356 233.659L89.8999 232.079L85.0317 231.43L79.4458 232.079L76.3624 233.659L77.6239 235.258L82.5449 235.926L88.2049 235.258L88.4213 235.144L91.2356 233.659Z" fill="#ECAFE2"/>
<path d="M104.409 235.258L102.985 233.659L103.275 241.824H104.639L104.409 235.258Z" fill="#ECAFE2"/>
<path d="M109.397 235.926L104.409 235.258L104.639 241.824H109.596L109.397 235.926Z" fill="#ECAFE2"/>
<path d="M114.99 235.258L109.397 235.926L109.596 241.824L115.193 241.614L114.99 235.258Z" fill="#ECAFE2"/>
<path d="M118.037 239.367L118.035 239.303L117.859 233.659L115.079 235.208L114.99 235.258L115.193 241.614V251.345L118.333 248.821L118.037 239.367Z" fill="#ECAFE2"/>
<path d="M117.859 233.659L116.363 232.079L111.43 231.43L105.91 232.079L102.985 233.659L104.409 235.258L109.397 235.926L114.99 235.258L115.079 235.208L117.859 233.659Z" fill="#ECAFE2"/>
<path d="M64.6124 233.659L63.4362 232.079L58.6339 231.43L52.9825 232.079L49.7389 233.659M64.6124 233.659L64.8728 239.303L64.8759 239.368L65.3123 248.821L61.8268 251.345V243.899M64.6124 233.659L61.4198 235.258M49.7389 233.659L50.8391 235.258M49.7389 233.659L50.1498 241.824H51.1675M61.4198 235.258L55.6923 235.926M61.4198 235.258L61.8268 243.899M55.6923 235.926L50.8391 235.258M55.6923 235.926L55.9794 241.824M61.8268 243.899L55.9794 241.824M50.8391 235.258L51.1675 241.824M55.9794 241.824H51.1675M91.2356 233.659L89.8999 232.079L85.0317 231.43L79.4458 232.079L76.3624 233.659M91.2356 233.659L88.4213 235.144L88.2049 235.258M91.2356 233.659L91.4542 239.303L91.4564 239.367L91.8224 248.821L88.4646 251.345V241.824M76.3624 233.659L77.6239 235.258M76.3624 233.659L76.7124 241.824H77.9033M88.2049 235.258L82.5449 235.926M88.2049 235.258L88.4646 241.824M82.5449 235.926L77.6239 235.258M82.5449 235.926L82.7877 241.824M88.4646 241.824H82.7877M77.6239 235.258L77.9033 241.824M82.7877 241.824H77.9033M117.859 233.659L116.363 232.079L111.43 231.43L105.91 232.079L102.985 233.659M117.859 233.659L115.079 235.208L114.99 235.258M117.859 233.659L118.035 239.303L118.037 239.367L118.333 248.821L115.193 251.345V241.614M102.985 233.659L104.409 235.258M102.985 233.659L103.275 241.824H104.639M114.99 235.258L109.397 235.926M114.99 235.258L115.193 241.614M109.397 235.926L104.409 235.258M109.397 235.926L109.596 241.824M115.193 241.614L109.596 241.824M104.409 235.258L104.639 241.824M109.596 241.824H104.639" stroke="black" stroke-linejoin="round"/>
<path d="M43.9173 269.897L39.9481 276.306Z" fill="#ECAFE2"/>
<path d="M73.9424 269.897L70.6152 276.306Z" fill="#ECAFE2"/>
<path d="M103.967 269.897L101.282 276.306Z" fill="#ECAFE2"/>
<path d="M133.992 269.897L131.95 276.306Z" fill="#ECAFE2"/>
<path d="M164.017 269.897L162.617 276.306Z" fill="#ECAFE2"/>
<path d="M194.042 269.897L193.284 276.306Z" fill="#ECAFE2"/>
<path d="M202.876 292.365L205.313 276.306Z" fill="#ECAFE2"/>
<path d="M233.498 292.365L235.98 276.306Z" fill="#ECAFE2"/>
<path d="M254.092 269.897L254.618 276.306L257.054 292.365" fill="#ECAFE2"/>
<path d="M264.121 292.365L266.647 276.306Z" fill="#ECAFE2"/>
<path d="M294.743 292.365L297.315 276.306Z" fill="#ECAFE2"/>
<path d="M325.365 292.365L327.982 276.306Z" fill="#ECAFE2"/>
<path d="M355.987 292.365L358.649 276.306Z" fill="#ECAFE2"/>
<path d="M386.609 292.365L389.316 276.306Z" fill="#ECAFE2"/>
<path d="M417.232 292.365L419.983 276.306Z" fill="#ECAFE2"/>
<path d="M50.0989 259.916L46.3919 265.901Z" fill="#ECAFE2"/>
<path d="M46.9657 281.429H49.0401L51.9666 276.383" fill="#ECAFE2"/>
<path d="M79.1238 259.916L76.0167 265.901Z" fill="#ECAFE2"/>
<path d="M108.149 259.916L105.641 265.901Z" fill="#ECAFE2"/>
<path d="M137.174 259.916L135.266 265.901Z" fill="#ECAFE2"/>
<path d="M166.198 259.916L164.89 265.901Z" fill="#ECAFE2"/>
<path d="M195.223 259.916L194.515 265.901Z" fill="#ECAFE2"/>
<path d="M203.78 281.429L206.135 265.901Z" fill="#ECAFE2"/>
<path d="M224.248 259.916L224.14 265.901L226.536 281.429" fill="#ECAFE2"/>
<path d="M233.363 281.429L235.76 265.901Z" fill="#ECAFE2"/>
<path d="M253.273 259.916L253.764 265.901L256.118 281.429" fill="#ECAFE2"/>
<path d="M262.945 281.429L265.385 265.901Z" fill="#ECAFE2"/>
<path d="M292.528 281.429L295.009 265.901Z" fill="#ECAFE2"/>
<path d="M322.111 281.429L324.634 265.901Z" fill="#ECAFE2"/>
<path d="M351.693 281.429L354.258 265.901Z" fill="#ECAFE2"/>
<path d="M381.276 281.429L383.883 265.901Z" fill="#ECAFE2"/>
<path d="M410.858 281.429L413.508 265.901Z" fill="#ECAFE2"/>
<path d="M55.8817 250.579L52.4125 256.18Z" fill="#ECAFE2"/>
<path d="M83.971 250.579L81.0632 256.18Z" fill="#ECAFE2"/>
<path d="M112.06 250.579L109.713 256.18Z" fill="#ECAFE2"/>
<path d="M140.149 250.579L138.364 256.18Z" fill="#ECAFE2"/>
<path d="M168.239 250.579L167.015 256.18Z" fill="#ECAFE2"/>
<path d="M196.328 250.579L195.665 256.18Z" fill="#ECAFE2"/>
<path d="M204.624 271.212L206.904 256.18Z" fill="#ECAFE2"/>
<path d="M224.418 250.579L224.316 256.18L226.633 271.212" fill="#ECAFE2"/>
<path d="M233.236 271.212L234.69 261.784L234.711 261.644L235.554 256.18" fill="#ECAFE2"/>
<path d="M252.507 250.579L252.966 256.18L255.244 271.212" fill="#ECAFE2"/>
<path d="M261.847 271.212L263.325 261.788L263.348 261.644L264.205 256.18" fill="#ECAFE2"/>
<path d="M290.459 271.212L291.961 261.792L291.984 261.644L292.855 256.18" fill="#ECAFE2"/>
<path d="M319.07 271.212L321.506 256.18Z" fill="#ECAFE2"/>
<path d="M347.681 271.212L349.231 261.8L349.257 261.644L350.157 256.18" fill="#ECAFE2"/>
<path d="M376.292 271.212L377.867 261.803L377.893 261.644L378.807 256.18" fill="#ECAFE2"/>
<path d="M407.458 256.18L404.474 251.386L403.971 250.579" fill="#ECAFE2"/>
<path d="M61.3033 241.824L58.0496 247.078Z" fill="#ECAFE2"/>
<path d="M88.5155 241.824L85.7881 247.078Z" fill="#ECAFE2"/>
<path d="M115.728 241.824L113.527 247.078Z" fill="#ECAFE2"/>
<path d="M142.94 241.824L141.265 247.078Z" fill="#ECAFE2"/>
<path d="M170.152 241.824L169.004 247.078Z" fill="#ECAFE2"/>
<path d="M197.364 241.824L196.742 247.078Z" fill="#ECAFE2"/>
<path d="M205.415 261.644L207.623 247.078Z" fill="#ECAFE2"/>
<path d="M224.576 241.824L224.481 247.078L226.724 261.644" fill="#ECAFE2"/>
<path d="M233.117 261.644L235.361 247.078Z" fill="#ECAFE2"/>
<path d="M251.788 241.824L252.22 247.078L254.426 261.644" fill="#ECAFE2"/>
<path d="M260.819 261.644L263.1 247.078Z" fill="#ECAFE2"/>
<path d="M288.52 261.644L290.153 251.386L290.156 251.367L290.839 247.078" fill="#ECAFE2"/>
<path d="M316.222 261.644L317.881 251.386L317.884 251.367L318.577 247.078" fill="#ECAFE2"/>
<path d="M343.924 261.644L345.609 251.386L345.611 251.367L346.316 247.078" fill="#ECAFE2"/>
<path d="M371.626 261.644L373.336 251.386L373.339 251.367L374.054 247.078" fill="#ECAFE2"/>
<path d="M401.793 247.078L398.523 241.824Z" fill="#ECAFE2"/>
<path d="M259.788 251.386L259.796 251.367L261.374 247.681" fill="#ECAFE2"/>
<path d="M277.26 241.38L277.339 241.824Z" fill="#ECAFE2"/>
<path d="M286.549 251.386L286.557 251.367L288.634 246.434" fill="#ECAFE2"/>
<path d="M288.756 246.434H288.634L287.552 241.38" fill="#ECAFE2"/>
<path d="M303.498 241.38L303.62 241.824Z" fill="#ECAFE2"/>
<path d="M313.311 251.386L313.318 251.367L315.361 246.434" fill="#ECAFE2"/>
<path d="M315.907 246.434H315.361L313.79 241.38" fill="#ECAFE2"/>
<path d="M329.736 241.38L329.9 241.824Z" fill="#ECAFE2"/>
<path d="M340.072 251.386L340.079 251.367L342.088 246.434" fill="#ECAFE2"/>
<path d="M355.974 241.38L356.181 241.824Z" fill="#ECAFE2"/>
<path d="M366.833 251.386L366.84 251.367L368.815 246.434" fill="#ECAFE2"/>
<path d="M393.594 251.386L393.601 251.367L395.542 246.434" fill="#ECAFE2"/>
<path d="M53.0353 271.212H54.9317Z" fill="#ECAFE2"/>
<path d="M55.728 269.897L58.0022 265.975Z" fill="#ECAFE2"/>
<path d="M58.7138 261.644H60.4813Z" fill="#ECAFE2"/>
<path d="M61.5159 259.916L63.6408 256.252Z" fill="#ECAFE2"/>
<path d="M261.79 245.438L261.314 241.38Z" fill="#ECAFE2"/>
<path d="M396.243 256.352L398.32 259.916Z" fill="#ECAFE2"/>
<path d="M401.912 266.078L404.137 269.897Z" fill="#ECAFE2"/>
<path d="M399.405 261.644H401.135Z" fill="#ECAFE2"/>
<path d="M404.984 271.212H406.841Z" fill="#ECAFE2"/>
<path d="M398.523 241.824L401.793 247.078H418.651L415.061 241.824H408.743H398.523Z" fill="#ECAFE2"/>
<path d="M399.345 261.541L399.405 261.644H401.135L403.764 251.386L403.769 251.367L403.971 250.579H419.128L418.651 247.078H401.793L401.067 251.367L401.064 251.386L399.345 261.541Z" fill="#ECAFE2"/>
<path d="M398.398 259.916L399.345 261.541L401.064 251.386L401.067 251.367L401.793 247.078L398.523 241.824L397.359 246.434L396.113 251.367L396.108 251.386L395.329 254.469L395.297 254.598L395.35 254.689L396.219 256.18L396.243 256.352L398.32 259.916H398.398Z" fill="#ECAFE2"/>
<path d="M395.542 246.434H397.359L398.523 241.824H408.743L408.45 241.38H392.504L395.542 246.434Z" fill="#ECAFE2"/>
<path d="M396.108 251.386L396.113 251.367L397.359 246.434H395.542L393.601 251.367L393.594 251.386H396.108Z" fill="#ECAFE2"/>
<path d="M393.594 251.386L393.601 251.367L395.542 246.434L392.504 241.38L389.807 244.897L393.583 251.367L393.594 251.386Z" fill="#ECAFE2"/>
<path d="M404.474 251.386L407.458 256.18H424.87L421.043 250.579H419.128H403.971L404.474 251.386Z" fill="#ECAFE2"/>
<path d="M404.217 269.897L404.922 271.105L407.458 256.18L404.474 251.386L403.971 250.579L403.769 251.367L403.764 251.386L401.135 261.644L400.607 263.705L401.887 265.901L401.912 266.078L404.137 269.897H404.217Z" fill="#ECAFE2"/>
<path d="M404.922 271.105L404.984 271.212H406.841L406.877 271.076L409.783 259.916H425.378L424.87 256.18H407.458L404.922 271.105Z" fill="#ECAFE2"/>
<path d="M427.423 259.916H425.378H409.783L413.508 265.901H431.512L427.423 259.916Z" fill="#ECAFE2"/>
<path d="M407.954 276.306L407.979 276.489L410.858 281.429L413.508 265.901L409.783 259.916L406.877 271.076L406.841 271.212L406.268 273.414L407.954 276.306Z" fill="#ECAFE2"/>
<path d="M410.858 281.429H412.941L415.994 269.897H432.053L431.512 265.901H413.508L410.858 281.429Z" fill="#ECAFE2"/>
<path d="M412.941 281.429L412.29 283.887L417.232 292.365L419.983 276.306L415.994 269.897L412.941 281.429Z" fill="#ECAFE2"/>
<path d="M434.242 269.897H432.053H415.994L419.983 276.306H438.621L434.242 269.897Z" fill="#ECAFE2"/>
<path d="M419.983 276.306L417.232 292.365H440.787L438.621 276.306H419.983Z" fill="#ECAFE2"/>
<path d="M61.3033 241.824H44.7654L41.1915 247.078H58.0496L61.3033 241.824Z" fill="#ECAFE2"/>
<path d="M60.4813 261.644L60.5064 261.601L58.0496 247.078H41.1915L40.7141 250.579H55.8817L58.7138 261.644H60.4813Z" fill="#ECAFE2"/>
<path d="M61.4838 259.916H61.5159L63.6408 256.252L63.6507 256.18L64.5157 254.689L64.5376 254.65L61.3033 241.824L58.0496 247.078L60.5064 261.601L61.4838 259.916Z" fill="#ECAFE2"/>
<path d="M55.8817 250.579H40.7141H38.8104L35 256.18H52.4125L55.8817 250.579Z" fill="#ECAFE2"/>
<path d="M55.6946 269.897H55.728L58.0022 265.975L58.0123 265.901L59.2322 263.798L59.2548 263.759L58.7138 261.644L55.8817 250.579L52.4125 256.18L54.9575 271.167L55.6946 269.897Z" fill="#ECAFE2"/>
<path d="M54.9317 271.212L54.9575 271.167L52.4125 256.18H35L34.4921 259.916H50.0989L51.4002 264.921L51.4352 265.057L53.0353 271.212H54.9317Z" fill="#ECAFE2"/>
<path d="M34.4921 259.916H32.4589L28.3879 265.901H46.3919L50.0989 259.916H34.4921Z" fill="#ECAFE2"/>
<path d="M51.9666 276.383L51.9771 276.306L52.0032 276.261L53.6222 273.47L53.0353 271.212L51.4352 265.057L51.4002 264.921L50.0989 259.916L46.3919 265.901L49.0401 281.429L51.9666 276.383Z" fill="#ECAFE2"/>
<path d="M46.9657 281.429H49.0401L46.3919 265.901H28.3879L27.8465 269.897H43.9173L46.9657 281.429Z" fill="#ECAFE2"/>
<path d="M27.8465 269.897H25.6697L21.3101 276.306H39.9481L43.9173 269.897H27.8465Z" fill="#ECAFE2"/>
<path d="M47.615 283.887L46.9657 281.429L43.9173 269.897L39.9481 276.306L42.6984 292.365L47.615 283.887Z" fill="#ECAFE2"/>
<path d="M21.3101 276.306L19.1428 292.365H42.6984L39.9481 276.306H21.3101Z" fill="#ECAFE2"/>
<path d="M88.5155 241.824H71.9776L68.9301 247.078H85.7881L88.5155 241.824Z" fill="#ECAFE2"/>
<path d="M88.2154 261.644L91.5878 254.689L88.5155 241.824L85.7881 247.078L88.2154 261.644Z" fill="#ECAFE2"/>
<path d="M86.6499 261.644H88.2154L85.7881 247.078H68.9301L68.4438 250.579H83.971L86.6499 261.644Z" fill="#ECAFE2"/>
<path d="M68.4438 250.579H66.8997L64.5376 254.65L64.5157 254.689L63.6507 256.18H81.0632L83.971 250.579H68.4438Z" fill="#ECAFE2"/>
<path d="M87.1712 263.798L86.6499 261.644L83.971 250.579L81.0632 256.18L83.5767 271.212L87.1712 263.798Z" fill="#ECAFE2"/>
<path d="M81.8979 271.212H83.5767L81.0632 256.18H63.6507L63.6408 256.252L63.1329 259.916H79.1238L81.8979 271.212Z" fill="#ECAFE2"/>
<path d="M63.1329 259.916H61.5159H61.4838L60.5064 261.601L60.4813 261.644L59.2548 263.759L59.2322 263.798L58.0123 265.901H76.0167L79.1238 259.916H63.1329Z" fill="#ECAFE2"/>
<path d="M82.4625 273.51L81.8979 271.212L79.1238 259.916L76.0167 265.901L78.6225 281.429L82.4625 273.51Z" fill="#ECAFE2"/>
<path d="M76.8184 281.429H78.6225L76.0167 265.901H58.0123L58.0022 265.975L57.4602 269.897H73.9424L76.8184 281.429Z" fill="#ECAFE2"/>
<path d="M57.4602 269.897H55.728H55.6946L54.9575 271.167L54.9317 271.212L53.6222 273.47L52.0032 276.261L51.9771 276.306H70.6152L73.9424 269.897H57.4602Z" fill="#ECAFE2"/>
<path d="M77.4313 283.887L76.8184 281.429L73.9424 269.897L70.6152 276.306L73.3206 292.365L77.4313 283.887Z" fill="#ECAFE2"/>
<path d="M51.9771 276.306L51.9666 276.383L49.765 292.365H73.3206L70.6152 276.306H51.9771Z" fill="#ECAFE2"/>
<path d="M82.6445 276.306L80.3872 292.365H103.943L101.282 276.306H82.6445Z" fill="#ECAFE2"/>
<path d="M87.0742 269.897H85.7197L82.6445 276.306H101.282L103.967 269.897H87.0742Z" fill="#ECAFE2"/>
<path d="M107.247 283.887L106.671 281.429L103.967 269.897L101.282 276.306L103.943 292.365L107.247 283.887Z" fill="#ECAFE2"/>
<path d="M106.671 281.429H108.205L105.641 265.901H87.6371L87.0742 269.897H103.967L106.671 281.429Z" fill="#ECAFE2"/>
<path d="M91.774 259.916H90.5087L87.6371 265.901H105.641L108.149 259.916H91.774Z" fill="#ECAFE2"/>
<path d="M109.306 264.921L109.328 265.016L110.761 271.212H112.188L109.713 256.18H92.3013L91.774 259.916H108.149L109.306 264.921Z" fill="#ECAFE2"/>
<path d="M111.292 273.51L110.761 271.212L109.328 265.016L109.306 264.921L108.149 259.916L105.641 265.901L108.205 281.429L111.292 273.51Z" fill="#ECAFE2"/>
<path d="M115.078 263.798L114.586 261.644L112.06 250.579L109.713 256.18L112.188 271.212L115.078 263.798Z" fill="#ECAFE2"/>
<path d="M114.586 261.644H115.917L113.527 247.078H96.6686L96.1734 250.579H112.06L114.586 261.644Z" fill="#ECAFE2"/>
<path d="M115.917 261.644L118.628 254.689L115.728 241.824L113.527 247.078L115.917 261.644Z" fill="#ECAFE2"/>
<path d="M115.728 241.824H99.1894L96.6686 247.078H113.527L115.728 241.824Z" fill="#ECAFE2"/>
<path d="M142.94 241.824H126.402L124.407 247.078H141.265L142.94 241.824Z" fill="#ECAFE2"/>
<path d="M142.523 261.644H143.619L141.265 247.078H124.407L123.903 250.579H140.149L142.523 261.644Z" fill="#ECAFE2"/>
<path d="M143.619 261.644L145.669 254.689L142.94 241.824L141.265 247.078L143.619 261.644Z" fill="#ECAFE2"/>
<path d="M142.984 263.798L142.523 261.644L140.149 250.579L138.364 256.18L140.799 271.212L142.984 263.798Z" fill="#ECAFE2"/>
<path d="M123.903 250.579H123.079L120.952 256.18H138.364L140.149 250.579H123.903Z" fill="#ECAFE2"/>
<path d="M138.259 264.921L138.276 264.997L139.623 271.212H140.799L138.364 256.18H120.952L120.415 259.916H137.174L138.259 264.921Z" fill="#ECAFE2"/>
<path d="M120.415 259.916H119.534L117.262 265.901H135.266L137.174 259.916H120.415Z" fill="#ECAFE2"/>
<path d="M140.122 273.51L139.623 271.212L138.276 264.997L138.259 264.921L137.174 259.916L135.266 265.901L137.788 281.429L140.122 273.51Z" fill="#ECAFE2"/>
<path d="M136.524 281.429H137.788L135.266 265.901H117.262L116.688 269.897H133.992L136.524 281.429Z" fill="#ECAFE2"/>
<path d="M116.688 269.897H115.745L113.312 276.306H131.95L133.992 269.897H116.688Z" fill="#ECAFE2"/>
<path d="M137.064 283.887L136.524 281.429L133.992 269.897L131.95 276.306L134.565 292.365L137.064 283.887Z" fill="#ECAFE2"/>
<path d="M113.312 276.306L111.009 292.365H134.565L131.95 276.306H113.312Z" fill="#ECAFE2"/>
<path d="M96.1734 250.579H94.9889L92.3013 256.18H109.713L112.06 250.579H96.1734Z" fill="#ECAFE2"/>
<path d="M146.302 269.897H145.77L143.979 276.306H162.617L164.017 269.897H146.302Z" fill="#ECAFE2"/>
<path d="M166.88 283.887L166.377 281.429L164.017 269.897L162.617 276.306L165.187 292.365L166.88 283.887Z" fill="#ECAFE2"/>
<path d="M143.979 276.306L141.632 292.365H165.187L162.617 276.306H143.979Z" fill="#ECAFE2"/>
<path d="M166.377 281.429H167.371L164.89 265.901H146.886L146.302 269.897H164.017L166.377 281.429Z" fill="#ECAFE2"/>
<path d="M149.056 259.916H148.558L146.886 265.901H164.89L166.198 259.916H149.056Z" fill="#ECAFE2"/>
<path d="M168.952 273.51L168.486 271.212L166.198 259.916L164.89 265.901L167.371 281.429L168.952 273.51Z" fill="#ECAFE2"/>
<path d="M170.891 263.798L170.459 261.644L168.239 250.579L167.015 256.18L169.411 271.212L170.891 263.798Z" fill="#ECAFE2"/>
<path d="M168.486 271.212H169.411L167.015 256.18H149.602L149.056 259.916H166.198L168.486 271.212Z" fill="#ECAFE2"/>
<path d="M151.633 250.579H151.168L149.602 256.18H167.015L168.239 250.579H151.633Z" fill="#ECAFE2"/>
<path d="M170.459 261.644H171.321L169.004 247.078H152.146L151.633 250.579H168.239L170.459 261.644Z" fill="#ECAFE2"/>
<path d="M171.321 261.644L172.709 254.689L170.152 241.824L169.004 247.078L171.321 261.644Z" fill="#ECAFE2"/>
<path d="M170.152 241.824H153.614L152.146 247.078H169.004L170.152 241.824Z" fill="#ECAFE2"/>
<path d="M197.364 241.824H180.826L179.884 247.078H196.742L197.364 241.824Z" fill="#ECAFE2"/>
<path d="M198.395 261.644H199.023L196.742 247.078H179.884L179.363 250.579H196.328L198.395 261.644Z" fill="#ECAFE2"/>
<path d="M199.023 261.644L199.75 254.689L197.364 241.824L196.742 247.078L199.023 261.644Z" fill="#ECAFE2"/>
<path d="M198.797 263.798L198.395 261.644L196.328 250.579L195.665 256.18L197.999 271.068L198.022 271.212L198.797 263.798Z" fill="#ECAFE2"/>
<path d="M179.363 250.579H179.257L178.253 256.18H195.665L196.328 250.579H179.363Z" fill="#ECAFE2"/>
<path d="M197.349 271.212H198.022L197.999 271.068L195.665 256.18H178.253L177.696 259.916H195.223L197.349 271.212Z" fill="#ECAFE2"/>
<path d="M177.696 259.916H177.583L176.511 265.901H194.515L195.223 259.916H177.696Z" fill="#ECAFE2"/>
<path d="M197.781 273.51L197.349 271.212L195.223 259.916L194.515 265.901L196.953 281.429L197.781 273.51Z" fill="#ECAFE2"/>
<path d="M196.23 281.429H196.953L194.515 265.901H176.511L175.915 269.897H194.042L196.23 281.429Z" fill="#ECAFE2"/>
<path d="M175.915 269.897H175.795L174.646 276.306H193.284L194.042 269.897H175.915Z" fill="#ECAFE2"/>
<path d="M196.696 283.887L196.23 281.429L194.042 269.897L193.284 276.306L195.81 292.365L196.696 283.887Z" fill="#ECAFE2"/>
<path d="M174.646 276.306L172.254 292.365H195.81L193.284 276.306H174.646Z" fill="#ECAFE2"/>
<path d="M205.313 276.306L202.876 292.365H226.432L223.951 276.306H205.313Z" fill="#ECAFE2"/>
<path d="M205.313 276.306H223.951L224.067 269.897H205.82L205.313 276.306Z" fill="#ECAFE2"/>
<path d="M226.083 281.429H226.536L224.14 265.901H206.135L203.78 281.429H203.971L205.82 269.897H224.067L226.083 281.429Z" fill="#ECAFE2"/>
<path d="M206.135 265.901H224.14L224.248 259.916H206.608L206.135 265.901Z" fill="#ECAFE2"/>
<path d="M206.904 256.18H224.316L224.418 250.579H207.346L206.904 256.18Z" fill="#ECAFE2"/>
<path d="M226.212 271.212H226.633L224.316 256.18H206.904L204.624 271.212H204.802L206.608 259.916H224.248L226.212 271.212Z" fill="#ECAFE2"/>
<path d="M226.331 261.644H226.724L224.481 247.078H207.623L205.415 261.644H205.581L207.346 250.579H224.418L226.331 261.644Z" fill="#ECAFE2"/>
<path d="M207.623 247.078H224.481L224.576 241.824H208.038L207.623 247.078Z" fill="#ECAFE2"/>
<path d="M226.611 273.51L226.212 271.212L224.248 259.916L224.14 265.901L226.536 281.429L226.611 273.51Z" fill="#ECAFE2"/>
<path d="M226.512 283.887L226.083 281.429L224.067 269.897L223.951 276.306L226.432 292.365L226.512 283.887Z" fill="#ECAFE2"/>
<path d="M226.704 263.798L226.331 261.644L224.418 250.579L224.316 256.18L226.633 271.212L226.704 263.798Z" fill="#ECAFE2"/>
<path d="M226.79 254.689L226.251 251.555L226.219 251.367L224.576 241.824L224.481 247.078L226.724 261.644L226.79 254.689Z" fill="#ECAFE2"/>
<path d="M233.117 261.644L235.361 247.078L235.25 241.824L233.031 254.689L233.117 261.644Z" fill="#ECAFE2"/>
<path d="M234.69 261.784L234.711 261.644L235.554 256.18L235.436 250.579L233.517 261.644L233.144 263.798L233.236 271.212L234.69 261.784Z" fill="#ECAFE2"/>
<path d="M234.711 261.644L234.69 261.784L233.236 271.212H233.665L235.633 259.916H253.273L255.074 271.212H255.244L252.966 256.18H235.554L234.711 261.644Z" fill="#ECAFE2"/>
<path d="M235.554 256.18H252.966L252.507 250.579H235.436L235.554 256.18Z" fill="#ECAFE2"/>
<path d="M254.268 261.644H254.426L252.22 247.078H235.361L233.117 261.644H233.517L235.436 250.579H252.507L254.268 261.644Z" fill="#ECAFE2"/>
<path d="M235.76 265.901H253.764L253.273 259.916H235.633L235.76 265.901Z" fill="#ECAFE2"/>
<path d="M255.936 281.429H256.118L253.764 265.901H235.76L233.363 281.429H233.824L235.845 269.897H254.092L255.936 281.429Z" fill="#ECAFE2"/>
<path d="M235.98 276.306H254.618L254.092 269.897H235.845L235.98 276.306Z" fill="#ECAFE2"/>
<path d="M233.824 281.429L233.393 283.887L233.498 292.365L235.98 276.306L235.845 269.897L233.824 281.429Z" fill="#ECAFE2"/>
<path d="M233.665 271.212L233.264 273.51L233.363 281.429L235.76 265.901L235.633 259.916L233.665 271.212Z" fill="#ECAFE2"/>
<path d="M235.361 247.078H252.22L251.788 241.824H235.25L235.361 247.078Z" fill="#ECAFE2"/>
<path d="M259.788 251.386L259.796 251.367L261.374 247.681L261.79 245.438L261.314 241.38L259.089 244.897L259.786 251.367L259.788 251.386Z" fill="#ECAFE2"/>
<path d="M279 241.824H277.505H277.339H262.462L263.1 247.078H279.958L279 241.824Z" fill="#ECAFE2"/>
<path d="M261.79 245.438L261.824 245.256L262.462 241.824H277.339L277.26 241.38H261.314L261.79 245.438Z" fill="#ECAFE2"/>
<path d="M261.824 245.256L261.79 245.438L261.374 247.681L260.689 251.367L260.685 251.386L260.071 254.689L260.819 261.644L263.1 247.078L262.462 241.824L261.824 245.256Z" fill="#ECAFE2"/>
<path d="M263.377 251.367L263.525 250.579H280.479L279.958 247.078H263.1L260.819 261.644H261.453L262.755 254.689L262.789 254.511L263.374 251.386L263.377 251.367Z" fill="#ECAFE2"/>
<path d="M280.596 250.579H280.479H263.525L264.205 256.18H281.617L280.596 250.579Z" fill="#ECAFE2"/>
<path d="M263.325 261.788L263.348 261.644L264.205 256.18L263.525 250.579L263.377 251.367L263.374 251.386L262.789 254.511L262.755 254.689L261.453 261.644L261.05 263.798L261.847 271.212L263.325 261.788Z" fill="#ECAFE2"/>
<path d="M282.298 259.916H282.173H264.658L265.385 265.901H283.389L282.298 259.916Z" fill="#ECAFE2"/>
<path d="M263.348 261.644L263.325 261.788L261.847 271.212H262.527L264.658 259.916H282.173L281.617 256.18H264.205L263.348 261.644Z" fill="#ECAFE2"/>
<path d="M262.527 271.212L262.094 273.51L262.945 281.429L265.385 265.901L264.658 259.916L262.527 271.212Z" fill="#ECAFE2"/>
<path d="M262.945 281.429H263.677L265.87 269.897H283.984L283.389 265.901H265.385L262.945 281.429Z" fill="#ECAFE2"/>
<path d="M284.145 270.049L284.117 269.897H283.984H265.87L266.647 276.306H285.286L284.145 270.049Z" fill="#ECAFE2"/>
<path d="M263.677 281.429L263.209 283.887L264.121 292.365L266.647 276.306L265.87 269.897L263.677 281.429Z" fill="#ECAFE2"/>
<path d="M266.647 276.306L264.121 292.365H287.676L285.286 276.306H266.647Z" fill="#ECAFE2"/>
<path d="M293.529 281.429L293.026 283.887L294.743 292.365L297.315 276.306L295.895 269.897L293.529 281.429Z" fill="#ECAFE2"/>
<path d="M297.315 276.306L294.743 292.365H318.298L315.953 276.306H297.315Z" fill="#ECAFE2"/>
<path d="M314.142 269.897H313.598H295.895L297.315 276.306H315.953L314.142 269.897Z" fill="#ECAFE2"/>
<path d="M292.528 281.429H293.529L295.895 269.897H313.598L313.014 265.901H295.009L292.528 281.429Z" fill="#ECAFE2"/>
<path d="M311.323 259.916H310.814H293.683L295.009 265.901H313.014L311.323 259.916Z" fill="#ECAFE2"/>
<path d="M291.39 271.212L290.924 273.51L292.528 281.429L295.009 265.901L293.683 259.916L291.39 271.212Z" fill="#ECAFE2"/>
<path d="M291.984 261.644L291.961 261.792L290.459 271.212H291.39L293.683 259.916H310.814L310.268 256.18H292.855L291.984 261.644Z" fill="#ECAFE2"/>
<path d="M291.961 261.792L291.984 261.644L292.855 256.18L291.793 251.386L291.789 251.367L291.614 250.579L291.456 251.367L291.452 251.386L289.39 261.644L288.957 263.798L290.459 271.212L291.961 261.792Z" fill="#ECAFE2"/>
<path d="M291.789 251.367L291.793 251.386L292.855 256.18H310.268L308.685 250.579H308.209H291.614L291.789 251.367Z" fill="#ECAFE2"/>
<path d="M291.456 251.367L291.614 250.579H308.209L307.697 247.078H290.839L290.156 251.367L290.153 251.386L288.52 261.644H289.39L291.452 251.386L291.456 251.367Z" fill="#ECAFE2"/>
<path d="M306.213 241.824H303.731H303.62H289.674L290.839 247.078H307.697L306.213 241.824Z" fill="#ECAFE2"/>
<path d="M290.153 251.386L290.156 251.367L290.839 247.078L289.674 241.824L288.756 246.434L287.774 251.367L287.77 251.386L287.112 254.689L288.52 261.644L290.153 251.386Z" fill="#ECAFE2"/>
<path d="M288.634 246.434H288.756L289.674 241.824H303.62L303.498 241.38H287.552L288.634 246.434Z" fill="#ECAFE2"/>
<path d="M286.549 251.386L286.557 251.367L288.634 246.434L287.552 241.38L285.233 244.897L286.545 251.367L286.549 251.386Z" fill="#ECAFE2"/>
<path d="M313.311 251.386L313.318 251.367L315.361 246.434L313.79 241.38L311.377 244.897L313.305 251.367L313.311 251.386Z" fill="#ECAFE2"/>
<path d="M315.361 246.434H315.907L316.887 241.824H329.9L329.736 241.38H313.79L315.361 246.434Z" fill="#ECAFE2"/>
<path d="M329.957 241.824H329.9H316.887L318.577 247.078H335.435L333.425 241.824H329.957Z" fill="#ECAFE2"/>
<path d="M317.881 251.386L317.884 251.367L318.577 247.078L316.887 241.824L315.907 246.434L314.858 251.367L314.854 251.386L314.152 254.689L316.222 261.644L317.881 251.386Z" fill="#ECAFE2"/>
<path d="M319.534 251.367L319.703 250.579H335.939L335.435 247.078H318.577L317.884 251.367L317.881 251.386L316.222 261.644H317.326L319.53 251.386L319.534 251.367Z" fill="#ECAFE2"/>
<path d="M319.957 251.367L319.963 251.386L321.506 256.18H338.918L336.775 250.579H335.939H319.703L319.957 251.367Z" fill="#ECAFE2"/>
<path d="M319.963 251.386L319.957 251.367L319.703 250.579L319.534 251.367L319.53 251.386L317.326 261.644L316.863 263.798L319.07 271.212L321.506 256.18L319.963 251.386Z" fill="#ECAFE2"/>
<path d="M319.07 271.212H320.253L322.708 259.916H339.455L338.918 256.18H321.506L319.07 271.212Z" fill="#ECAFE2"/>
<path d="M340.348 259.916H339.455H322.708L324.634 265.901H342.638L340.348 259.916Z" fill="#ECAFE2"/>
<path d="M322.111 281.429H323.382L325.92 269.897H343.212L342.638 265.901H324.634L322.111 281.429Z" fill="#ECAFE2"/>
<path d="M344.167 269.897H343.212H325.92L327.982 276.306H346.62L344.167 269.897Z" fill="#ECAFE2"/>
<path d="M323.382 281.429L322.842 283.887L325.365 292.365L327.982 276.306L325.92 269.897L323.382 281.429Z" fill="#ECAFE2"/>
<path d="M320.253 271.212L319.754 273.51L322.111 281.429L324.634 265.901L322.708 259.916L320.253 271.212Z" fill="#ECAFE2"/>
<path d="M327.982 276.306L325.365 292.365H348.921L346.62 276.306H327.982Z" fill="#ECAFE2"/>
<path d="M340.072 251.386L340.079 251.367L342.088 246.434L340.028 241.38L337.52 244.897L340.064 251.367L340.072 251.386Z" fill="#ECAFE2"/>
<path d="M342.088 246.434H343.057L344.099 241.824H356.181L355.974 241.38H340.028L342.088 246.434Z" fill="#ECAFE2"/>
<path d="M340.079 251.367L340.072 251.386H341.939L343.057 246.434H342.088L340.079 251.367Z" fill="#ECAFE2"/>
<path d="M345.609 251.386L345.611 251.367L346.316 247.078L344.099 241.824L343.057 246.434L341.939 251.386L341.193 254.689L343.924 261.644L345.609 251.386Z" fill="#ECAFE2"/>
<path d="M347.613 251.367L347.793 250.579H363.669L363.174 247.078H346.316L345.611 251.367L345.609 251.386L343.924 261.644H345.262L347.608 251.386L347.613 251.367Z" fill="#ECAFE2"/>
<path d="M356.183 241.824H356.181H344.099L346.316 247.078H363.174L360.637 241.824H356.183Z" fill="#ECAFE2"/>
<path d="M348.126 251.367L348.134 251.386L350.157 256.18H367.569L364.864 250.579H363.669H347.793L348.126 251.367Z" fill="#ECAFE2"/>
<path d="M369.373 259.916H368.096H351.733L354.258 265.901H372.263L369.373 259.916Z" fill="#ECAFE2"/>
<path d="M351.693 281.429H353.235L355.945 269.897H372.825L372.263 265.901H354.258L351.693 281.429Z" fill="#ECAFE2"/>
<path d="M374.192 269.897H372.825H355.945L358.649 276.306H377.287L374.192 269.897Z" fill="#ECAFE2"/>
<path d="M358.649 276.306L355.987 292.365H379.543L377.287 276.306H358.649Z" fill="#ECAFE2"/>
<path d="M353.235 281.429L352.658 283.887L355.987 292.365L358.649 276.306L355.945 269.897L353.235 281.429Z" fill="#ECAFE2"/>
<path d="M349.116 271.212L349.138 271.117L351.733 259.916H368.096L367.569 256.18H350.157L349.257 261.644L349.231 261.8L347.681 271.212H349.116Z" fill="#ECAFE2"/>
<path d="M349.231 261.8L349.257 261.644L350.157 256.18L348.134 251.386L348.126 251.367L347.793 250.579L347.613 251.367L347.608 251.386L345.262 261.644L344.77 263.798L347.681 271.212L349.231 261.8Z" fill="#ECAFE2"/>
<path d="M349.138 271.117L349.116 271.212L348.583 273.51L351.693 281.429L354.258 265.901L351.733 259.916L349.138 271.117Z" fill="#ECAFE2"/>
<path d="M366.833 251.386L366.84 251.367L368.815 246.434L366.266 241.38L363.664 244.897L366.824 251.367L366.833 251.386Z" fill="#ECAFE2"/>
<path d="M368.815 246.434H370.208L371.311 241.824H382.462L382.212 241.38H366.266L368.815 246.434Z" fill="#ECAFE2"/>
<path d="M366.84 251.367L366.833 251.386H369.023L370.208 246.434H368.815L366.84 251.367Z" fill="#ECAFE2"/>
<path d="M373.336 251.386L373.339 251.367L374.054 247.078L371.311 241.824L370.208 246.434L369.023 251.386L368.233 254.689L371.626 261.644L373.336 251.386Z" fill="#ECAFE2"/>
<path d="M374.054 247.078H390.912L387.849 241.824H382.462H371.311L374.054 247.078Z" fill="#ECAFE2"/>
<path d="M373.339 251.367L373.336 251.386L371.626 261.644H373.199L375.882 250.579H391.398L390.912 247.078H374.054L373.339 251.367Z" fill="#ECAFE2"/>
<path d="M376.294 251.367L376.304 251.386L378.807 256.18H396.219L395.35 254.689L395.297 254.598L392.953 250.579H391.398H375.882L376.294 251.367Z" fill="#ECAFE2"/>
<path d="M377.893 261.644L377.867 261.803L376.292 271.212H377.978L380.758 259.916H396.737L396.243 256.352L396.219 256.18H378.807L377.893 261.644Z" fill="#ECAFE2"/>
<path d="M377.867 261.803L377.893 261.644L378.807 256.18L376.304 251.386L376.294 251.367L375.882 250.579L373.199 261.644L372.676 263.798L376.292 271.212L377.867 261.803Z" fill="#ECAFE2"/>
<path d="M400.607 263.705L399.405 261.644L399.345 261.541L398.398 259.916H398.32H396.737H380.758L383.883 265.901H401.887L400.607 263.705Z" fill="#ECAFE2"/>
<path d="M377.978 271.212L377.413 273.51L381.276 281.429L383.883 265.901L380.758 259.916L377.978 271.212Z" fill="#ECAFE2"/>
<path d="M401.912 266.078L401.887 265.901H383.883L381.276 281.429H383.088L385.97 269.897H402.439L401.912 266.078Z" fill="#ECAFE2"/>
<path d="M406.268 273.414L404.984 271.212L404.922 271.105L404.217 269.897H404.137H402.439H385.97L389.316 276.306H407.954L406.268 273.414Z" fill="#ECAFE2"/>
<path d="M383.088 281.429L382.474 283.887L386.609 292.365L389.316 276.306L385.97 269.897L383.088 281.429Z" fill="#ECAFE2"/>
<path d="M407.979 276.489L407.954 276.306H389.316L386.609 292.365H410.165L407.979 276.489Z" fill="#ECAFE2"/>
<path d="M235.98 276.306L233.498 292.365H257.054L254.618 276.306H235.98Z" fill="#ECAFE2"/>
<path d="M21.3101 276.306L19.1428 292.365H42.6984M21.3101 276.306L25.6697 269.897H27.8465M21.3101 276.306H39.9481M42.6984 292.365L47.615 283.887L46.9657 281.429M42.6984 292.365L39.9481 276.306M46.9657 281.429H49.0401M46.9657 281.429L43.9173 269.897M43.9173 269.897H27.8465M43.9173 269.897L39.9481 276.306M27.8465 269.897L28.3879 265.901M51.9771 276.306L51.9666 276.383M51.9771 276.306L52.0032 276.261L53.6222 273.47M51.9771 276.306H70.6152M51.9666 276.383L49.765 292.365H73.3206M51.9666 276.383L49.0401 281.429M73.3206 292.365L77.4313 283.887L76.8184 281.429M73.3206 292.365L70.6152 276.306M76.8184 281.429H78.6225M76.8184 281.429L73.9424 269.897M73.9424 269.897H57.4602M73.9424 269.897L70.6152 276.306M57.4602 269.897H55.728M57.4602 269.897L58.0022 265.975M55.728 269.897H55.6946L54.9575 271.167M55.728 269.897L58.0022 265.975M54.9575 271.167L54.9317 271.212M54.9575 271.167L52.4125 256.18M54.9317 271.212L53.6222 273.47M54.9317 271.212H53.0353M53.6222 273.47L53.0353 271.212M82.6445 276.306L80.3872 292.365H103.943M82.6445 276.306L85.7197 269.897H87.0742M82.6445 276.306H101.282M103.943 292.365L107.247 283.887L106.671 281.429M103.943 292.365L101.282 276.306M106.671 281.429H108.205M106.671 281.429L103.967 269.897M103.967 269.897H87.0742M103.967 269.897L101.282 276.306M87.0742 269.897L87.6371 265.901M113.312 276.306L111.009 292.365H134.565M113.312 276.306L115.745 269.897H116.688M113.312 276.306H131.95M134.565 292.365L137.064 283.887L136.524 281.429M134.565 292.365L131.95 276.306M136.524 281.429H137.788M136.524 281.429L133.992 269.897M133.992 269.897H116.688M133.992 269.897L131.95 276.306M116.688 269.897L117.262 265.901M143.979 276.306L141.632 292.365H165.187M143.979 276.306L145.77 269.897H146.302M143.979 276.306H162.617M165.187 292.365L166.88 283.887L166.377 281.429M165.187 292.365L162.617 276.306M166.377 281.429H167.371M166.377 281.429L164.017 269.897M164.017 269.897H146.302M164.017 269.897L162.617 276.306M146.302 269.897L146.886 265.901M174.646 276.306L172.254 292.365H195.81M174.646 276.306L175.795 269.897H175.915M174.646 276.306H193.284M195.81 292.365L196.696 283.887L196.23 281.429M195.81 292.365L193.284 276.306M196.23 281.429H196.953M196.23 281.429L194.042 269.897M194.042 269.897H175.915M194.042 269.897L193.284 276.306M175.915 269.897L176.511 265.901M202.876 292.365L205.313 276.306M202.876 292.365L203.577 283.887L203.971 281.429M202.876 292.365H226.432M205.313 276.306H223.951M205.313 276.306L205.82 269.897M223.951 276.306L224.067 269.897M223.951 276.306L226.432 292.365M205.82 269.897L203.971 281.429M205.82 269.897H224.067M203.971 281.429H203.78M226.432 292.365L226.512 283.887L226.083 281.429M226.083 281.429H226.536M226.083 281.429L224.067 269.897M233.498 292.365L235.98 276.306M233.498 292.365L233.393 283.887L233.824 281.429M233.498 292.365H257.054M235.98 276.306H254.618M235.98 276.306L235.845 269.897M254.618 276.306L254.092 269.897M254.618 276.306L257.054 292.365M235.845 269.897L233.824 281.429M235.845 269.897H254.092M233.824 281.429H233.363M257.054 292.365L256.329 283.887L255.936 281.429M255.936 281.429H256.118M255.936 281.429L254.092 269.897M264.121 292.365L266.647 276.306M264.121 292.365L263.209 283.887L263.677 281.429M264.121 292.365H287.676L285.286 276.306M266.647 276.306H285.286M266.647 276.306L265.87 269.897M285.286 276.306L284.145 270.049L284.117 269.897H283.984M265.87 269.897L263.677 281.429M265.87 269.897H283.984M263.677 281.429H262.945M283.984 269.897L283.389 265.901M294.743 292.365L297.315 276.306M294.743 292.365L293.026 283.887L293.529 281.429M294.743 292.365H318.298L315.953 276.306M297.315 276.306H315.953M297.315 276.306L295.895 269.897M315.953 276.306L314.142 269.897H313.598M295.895 269.897L293.529 281.429M295.895 269.897H313.598M293.529 281.429H292.528M313.598 269.897L313.014 265.901M325.365 292.365L327.982 276.306M325.365 292.365L322.842 283.887L323.382 281.429M325.365 292.365H348.921L346.62 276.306M327.982 276.306H346.62M327.982 276.306L325.92 269.897M346.62 276.306L344.167 269.897H343.212M325.92 269.897L323.382 281.429M325.92 269.897H343.212M323.382 281.429H322.111M343.212 269.897L342.638 265.901M355.987 292.365L358.649 276.306M355.987 292.365L352.658 283.887L353.235 281.429M355.987 292.365H379.543L377.287 276.306M358.649 276.306H377.287M358.649 276.306L355.945 269.897M377.287 276.306L374.192 269.897H372.825M355.945 269.897L353.235 281.429M355.945 269.897H372.825M353.235 281.429H351.693M372.825 269.897L372.263 265.901M386.609 292.365L389.316 276.306M386.609 292.365L382.474 283.887L383.088 281.429M386.609 292.365H410.165L407.979 276.489M389.316 276.306H407.954M389.316 276.306L385.97 269.897M407.954 276.306L407.979 276.489M407.954 276.306L406.268 273.414M385.97 269.897L383.088 281.429M385.97 269.897H402.439M383.088 281.429H381.276M407.979 276.489L410.858 281.429M406.268 273.414L404.984 271.212M406.268 273.414L406.841 271.212M404.984 271.212L404.922 271.105M404.984 271.212H406.841M404.922 271.105L404.217 269.897H404.137M404.922 271.105L407.458 256.18M404.137 269.897H402.439M404.137 269.897L401.912 266.078M402.439 269.897L401.912 266.078M417.232 292.365L419.983 276.306M417.232 292.365L412.29 283.887L412.941 281.429M417.232 292.365H440.787L438.621 276.306M419.983 276.306H438.621M419.983 276.306L415.994 269.897M438.621 276.306L434.242 269.897H432.053M415.994 269.897L412.941 281.429M415.994 269.897H432.053M412.941 281.429H410.858M432.053 269.897L431.512 265.901M53.0353 271.212L51.4352 265.057L51.4002 264.921L50.0989 259.916M50.0989 259.916H34.4921M50.0989 259.916L46.3919 265.901M34.4921 259.916H32.4589L28.3879 265.901M34.4921 259.916L35 256.18M28.3879 265.901H46.3919M46.3919 265.901L49.0401 281.429M78.6225 281.429L82.4625 273.51L81.8979 271.212M78.6225 281.429L76.0167 265.901M81.8979 271.212H83.5767M81.8979 271.212L79.1238 259.916M79.1238 259.916H63.1329M79.1238 259.916L76.0167 265.901M63.1329 259.916H61.5159M63.1329 259.916L63.6408 256.252M61.5159 259.916H61.4838L60.5064 261.601M61.5159 259.916L63.6408 256.252M60.5064 261.601L60.4813 261.644M60.5064 261.601L58.0496 247.078M60.4813 261.644L59.2548 263.759M60.4813 261.644H58.7138M59.2548 263.759L59.2322 263.798L58.0123 265.901M59.2548 263.759L58.7138 261.644M58.0123 265.901L58.0022 265.975M58.0123 265.901H76.0167M108.205 281.429L111.292 273.51L110.761 271.212M108.205 281.429L105.641 265.901M110.761 271.212H112.188M110.761 271.212L109.328 265.016L109.306 264.921L108.149 259.916M108.149 259.916H91.774M108.149 259.916L105.641 265.901M91.774 259.916H90.5087L87.6371 265.901M91.774 259.916L92.3013 256.18M87.6371 265.901H105.641M137.788 281.429L140.122 273.51L139.623 271.212M137.788 281.429L135.266 265.901M139.623 271.212H140.799M139.623 271.212L138.276 264.997L138.259 264.921L137.174 259.916M137.174 259.916H120.415M137.174 259.916L135.266 265.901M120.415 259.916H119.534L117.262 265.901M120.415 259.916L120.952 256.18M117.262 265.901H135.266M167.371 281.429L168.952 273.51L168.486 271.212M167.371 281.429L164.89 265.901M168.486 271.212H169.411M168.486 271.212L166.198 259.916M166.198 259.916H149.056M166.198 259.916L164.89 265.901M149.056 259.916H148.558L146.886 265.901M149.056 259.916L149.602 256.18M146.886 265.901H164.89M196.953 281.429L197.781 273.51L197.349 271.212M196.953 281.429L194.515 265.901M197.349 271.212H198.022M197.349 271.212L195.223 259.916M195.223 259.916H177.696M195.223 259.916L194.515 265.901M177.696 259.916H177.583L176.511 265.901M177.696 259.916L178.253 256.18M176.511 265.901H194.515M203.78 281.429L206.135 265.901M203.78 281.429L204.435 273.51L204.802 271.212M206.135 265.901H224.14M206.135 265.901L206.608 259.916M224.14 265.901L224.248 259.916M224.14 265.901L226.536 281.429M206.608 259.916H224.248M206.608 259.916L204.802 271.212M226.536 281.429L226.611 273.51L226.212 271.212M226.212 271.212H226.633M226.212 271.212L224.248 259.916M204.802 271.212H204.624M233.363 281.429L235.76 265.901M233.363 281.429L233.264 273.51L233.665 271.212M235.76 265.901H253.764M235.76 265.901L235.633 259.916M253.764 265.901L253.273 259.916M253.764 265.901L256.118 281.429M235.633 259.916H253.273M235.633 259.916L233.665 271.212M256.118 281.429L255.441 273.51L255.074 271.212M255.074 271.212H255.244M255.074 271.212L253.273 259.916M233.665 271.212H233.236M262.945 281.429L265.385 265.901M262.945 281.429L262.094 273.51L262.527 271.212M265.385 265.901H283.389M265.385 265.901L264.658 259.916M283.389 265.901L282.298 259.916H282.173M264.658 259.916H282.173M264.658 259.916L262.527 271.212M282.173 259.916L281.617 256.18M262.527 271.212H261.847M292.528 281.429L295.009 265.901M292.528 281.429L290.924 273.51L291.39 271.212M295.009 265.901H313.014M295.009 265.901L293.683 259.916M313.014 265.901L311.323 259.916H310.814M293.683 259.916H310.814M293.683 259.916L291.39 271.212M310.814 259.916L310.268 256.18M291.39 271.212H290.459M322.111 281.429L324.634 265.901M322.111 281.429L319.754 273.51L320.253 271.212M324.634 265.901H342.638M324.634 265.901L322.708 259.916M342.638 265.901L340.348 259.916H339.455M322.708 259.916H339.455M322.708 259.916L320.253 271.212M339.455 259.916L338.918 256.18M320.253 271.212H319.07M351.693 281.429L354.258 265.901M351.693 281.429L348.583 273.51L349.116 271.212M354.258 265.901H372.263M354.258 265.901L351.733 259.916M372.263 265.901L369.373 259.916H368.096M351.733 259.916H368.096M351.733 259.916L349.138 271.117L349.116 271.212M368.096 259.916L367.569 256.18M349.116 271.212H347.681M381.276 281.429L383.883 265.901M381.276 281.429L377.413 273.51L377.978 271.212M383.883 265.901H401.887M383.883 265.901L380.758 259.916M401.887 265.901L401.912 266.078M401.887 265.901L400.607 263.705M380.758 259.916H396.737M380.758 259.916L377.978 271.212M400.607 263.705L399.405 261.644M400.607 263.705L401.135 261.644M399.405 261.644L399.345 261.541M399.405 261.644H401.135M399.345 261.541L398.398 259.916H398.32M399.345 261.541L401.064 251.386L401.067 251.367L401.793 247.078M398.32 259.916H396.737M398.32 259.916L396.243 256.352M396.737 259.916L396.243 256.352M377.978 271.212H376.292M410.858 281.429L413.508 265.901M413.508 265.901H431.512M413.508 265.901L409.783 259.916M431.512 265.901L427.423 259.916H425.378M409.783 259.916H425.378M409.783 259.916L406.877 271.076L406.841 271.212M425.378 259.916L424.87 256.18M58.7138 261.644L55.8817 250.579M55.8817 250.579H40.7141M55.8817 250.579L52.4125 256.18M40.7141 250.579H38.8104L35 256.18M40.7141 250.579L41.1915 247.078M35 256.18H52.4125M83.5767 271.212L87.1712 263.798L86.6499 261.644M83.5767 271.212L81.0632 256.18M86.6499 261.644H88.2154M86.6499 261.644L83.971 250.579M83.971 250.579H68.4438M83.971 250.579L81.0632 256.18M68.4438 250.579H66.8997L64.5376 254.65M68.4438 250.579L68.9301 247.078M64.5376 254.65L64.5157 254.689L63.6507 256.18M64.5376 254.65L61.3033 241.824M63.6507 256.18L63.6408 256.252M63.6507 256.18H81.0632M112.188 271.212L115.078 263.798L114.586 261.644M112.188 271.212L109.713 256.18M114.586 261.644H115.917M114.586 261.644L112.06 250.579M112.06 250.579H96.1734M112.06 250.579L109.713 256.18M96.1734 250.579H94.9889L92.3013 256.18M96.1734 250.579L96.6686 247.078M92.3013 256.18H109.713M140.799 271.212L142.984 263.798L142.523 261.644M140.799 271.212L138.364 256.18M142.523 261.644H143.619M142.523 261.644L140.149 250.579M140.149 250.579H123.903M140.149 250.579L138.364 256.18M123.903 250.579H123.079L120.952 256.18M123.903 250.579L124.407 247.078M120.952 256.18H138.364M169.411 271.212L170.891 263.798L170.459 261.644M169.411 271.212L167.015 256.18M170.459 261.644H171.321M170.459 261.644L168.239 250.579M168.239 250.579H151.633M168.239 250.579L167.015 256.18M151.633 250.579H151.168L149.602 256.18M151.633 250.579L152.146 247.078M149.602 256.18H167.015M198.022 271.212L197.999 271.068L195.665 256.18M198.022 271.212L198.797 263.798L198.395 261.644M198.395 261.644H199.023M198.395 261.644L196.328 250.579M196.328 250.579H179.363M196.328 250.579L195.665 256.18M179.363 250.579H179.257L178.253 256.18M179.363 250.579L179.884 247.078M178.253 256.18H195.665M204.624 271.212L206.904 256.18M204.624 271.212L205.237 263.798L205.581 261.644M206.904 256.18H224.316M206.904 256.18L207.346 250.579M224.316 256.18L224.418 250.579M224.316 256.18L226.633 271.212M207.346 250.579H224.418M207.346 250.579L205.581 261.644M226.633 271.212L226.704 263.798L226.331 261.644M226.331 261.644H226.724M226.331 261.644L224.418 250.579M205.581 261.644H205.415M233.236 271.212L234.69 261.784L234.711 261.644L235.554 256.18M233.236 271.212L233.144 263.798L233.517 261.644M235.554 256.18H252.966M235.554 256.18L235.436 250.579M252.966 256.18L252.507 250.579M252.966 256.18L255.244 271.212M235.436 250.579H252.507M235.436 250.579L233.517 261.644M255.244 271.212L254.61 263.798L254.268 261.644M254.268 261.644H254.426M254.268 261.644L252.507 250.579M233.517 261.644H233.117M261.847 271.212L263.325 261.788L263.348 261.644L264.205 256.18M261.847 271.212L261.05 263.798L261.453 261.644M264.205 256.18H281.617M264.205 256.18L263.525 250.579M281.617 256.18L280.596 250.579H280.479M263.525 250.579L263.377 251.367L263.374 251.386L262.789 254.511L262.755 254.689L261.453 261.644M263.525 250.579H280.479M280.479 250.579L279.958 247.078M261.453 261.644H260.819M290.459 271.212L291.961 261.792L291.984 261.644L292.855 256.18M290.459 271.212L288.957 263.798L289.39 261.644M292.855 256.18H310.268M292.855 256.18L291.793 251.386L291.789 251.367L291.614 250.579M310.268 256.18L308.685 250.579H308.209M291.614 250.579L291.456 251.367L291.452 251.386L289.39 261.644M291.614 250.579H308.209M308.209 250.579L307.697 247.078M289.39 261.644H288.52M319.07 271.212L321.506 256.18M319.07 271.212L316.863 263.798L317.326 261.644M321.506 256.18H338.918M321.506 256.18L319.963 251.386L319.957 251.367L319.703 250.579M338.918 256.18L336.775 250.579H335.939M319.703 250.579L319.534 251.367L319.53 251.386L317.326 261.644M319.703 250.579H335.939M335.939 250.579L335.435 247.078M317.326 261.644H316.222M347.681 271.212L349.231 261.8L349.257 261.644L350.157 256.18M347.681 271.212L344.77 263.798L345.262 261.644M350.157 256.18H367.569M350.157 256.18L348.134 251.386L348.126 251.367L347.793 250.579M367.569 256.18L364.864 250.579H363.669M347.793 250.579L347.613 251.367L347.608 251.386L345.262 261.644M347.793 250.579H363.669M363.669 250.579L363.174 247.078M345.262 261.644H343.924M376.292 271.212L377.867 261.803L377.893 261.644L378.807 256.18M376.292 271.212L372.676 263.798L373.199 261.644M378.807 256.18H396.219M378.807 256.18L376.304 251.386L376.294 251.367L375.882 250.579M396.219 256.18L396.243 256.352M396.219 256.18L395.35 254.689L395.297 254.598M375.882 250.579H391.398M375.882 250.579L373.199 261.644M395.297 254.598L395.329 254.469L396.108 251.386M395.297 254.598L392.953 250.579H391.398M391.398 250.579L390.912 247.078M373.199 261.644H371.626M407.458 256.18L404.474 251.386L403.971 250.579M407.458 256.18H424.87M403.971 250.579L403.769 251.367L403.764 251.386L401.135 261.644M403.971 250.579H419.128M424.87 256.18L421.043 250.579H419.128M419.128 250.579L418.651 247.078M61.3033 241.824H44.7654L41.1915 247.078M61.3033 241.824L58.0496 247.078M41.1915 247.078H58.0496M88.2154 261.644L91.5878 254.689L88.5155 241.824M88.2154 261.644L85.7881 247.078M88.5155 241.824H71.9776L68.9301 247.078M88.5155 241.824L85.7881 247.078M68.9301 247.078H85.7881M115.917 261.644L118.628 254.689L115.728 241.824M115.917 261.644L113.527 247.078M115.728 241.824H99.1894L96.6686 247.078M115.728 241.824L113.527 247.078M96.6686 247.078H113.527M143.619 261.644L145.669 254.689L142.94 241.824M143.619 261.644L141.265 247.078M142.94 241.824H126.402L124.407 247.078M142.94 241.824L141.265 247.078M124.407 247.078H141.265M171.321 261.644L172.709 254.689L170.152 241.824M171.321 261.644L169.004 247.078M170.152 241.824H153.614L152.146 247.078M170.152 241.824L169.004 247.078M152.146 247.078H169.004M199.023 261.644L199.75 254.689L197.364 241.824M199.023 261.644L196.742 247.078M197.364 241.824H180.826L179.884 247.078M197.364 241.824L196.742 247.078M179.884 247.078H196.742M205.415 261.644L207.623 247.078M205.415 261.644L205.99 254.689L206.019 254.507L208.038 241.824M207.623 247.078H224.481M207.623 247.078L208.038 241.824M224.481 247.078L224.576 241.824M224.481 247.078L226.724 261.644M208.038 241.824H224.576M226.724 261.644L226.79 254.689L226.251 251.555L226.219 251.367L224.576 241.824M233.117 261.644L235.361 247.078M233.117 261.644L233.031 254.689L235.25 241.824M235.361 247.078H252.22M235.361 247.078L235.25 241.824M252.22 247.078L251.788 241.824M252.22 247.078L254.426 261.644M235.25 241.824H251.788M254.426 261.644L253.831 254.689L251.788 241.824M260.819 261.644L263.1 247.078M260.819 261.644L260.071 254.689L260.685 251.386M263.1 247.078H279.958M263.1 247.078L262.462 241.824M279.958 247.078L279 241.824H277.505M262.462 241.824H277.339M262.462 241.824L261.824 245.256L261.79 245.438M277.505 241.824H277.339M277.505 241.824L277.26 241.38M277.339 241.824L277.26 241.38M261.79 245.438L261.374 247.681M261.79 245.438L261.314 241.38M261.374 247.681L260.689 251.367L260.685 251.386M261.374 247.681L259.796 251.367L259.788 251.386M260.685 251.386H259.788M288.52 261.644L290.153 251.386L290.156 251.367L290.839 247.078M288.52 261.644L287.112 254.689L287.77 251.386M290.839 247.078H307.697M290.839 247.078L289.674 241.824M307.697 247.078L306.213 241.824H303.731M289.674 241.824H303.62M289.674 241.824L288.756 246.434M303.731 241.824H303.62M303.731 241.824L303.498 241.38M303.62 241.824L303.498 241.38M288.756 246.434H288.634M288.756 246.434L287.774 251.367L287.77 251.386M287.77 251.386H286.549M316.222 261.644L317.881 251.386L317.884 251.367L318.577 247.078M316.222 261.644L314.152 254.689L314.854 251.386M318.577 247.078H335.435M318.577 247.078L316.887 241.824M335.435 247.078L333.425 241.824H329.957M316.887 241.824H329.9M316.887 241.824L315.907 246.434M329.957 241.824H329.9M329.957 241.824L329.736 241.38M329.9 241.824L329.736 241.38M315.907 246.434H315.361M315.907 246.434L314.858 251.367L314.854 251.386M314.854 251.386H313.311M343.924 261.644L345.609 251.386L345.611 251.367L346.316 247.078M343.924 261.644L341.193 254.689L341.939 251.386M346.316 247.078H363.174M346.316 247.078L344.099 241.824M363.174 247.078L360.637 241.824H356.183M344.099 241.824H356.181M344.099 241.824L343.057 246.434M356.183 241.824H356.181M356.183 241.824L355.974 241.38M356.181 241.824L355.974 241.38M343.057 246.434H342.088M343.057 246.434L341.939 251.386M341.939 251.386H340.072M371.626 261.644L373.336 251.386L373.339 251.367L374.054 247.078M371.626 261.644L368.233 254.689L369.023 251.386M374.054 247.078H390.912M374.054 247.078L371.311 241.824M390.912 247.078L387.849 241.824H382.462M371.311 241.824H382.462M371.311 241.824L370.208 246.434M382.462 241.824L382.212 241.38H366.266M370.208 246.434H368.815M370.208 246.434L369.023 251.386M369.023 251.386H366.833M401.793 247.078L398.523 241.824M401.793 247.078H418.651M398.523 241.824H408.743M398.523 241.824L397.359 246.434M418.651 247.078L415.061 241.824H408.743M408.743 241.824L408.45 241.38H392.504M397.359 246.434H395.542M397.359 246.434L396.113 251.367L396.108 251.386M396.108 251.386H393.594M259.788 251.386L259.786 251.367L259.089 244.897L261.314 241.38M277.26 241.38H261.314M286.549 251.386L286.557 251.367L288.634 246.434M286.549 251.386L286.545 251.367L285.233 244.897L287.552 241.38M288.634 246.434L287.552 241.38M287.552 241.38H303.498M313.311 251.386L313.318 251.367L315.361 246.434M313.311 251.386L313.305 251.367L311.377 244.897L313.79 241.38M315.361 246.434L313.79 241.38M313.79 241.38H329.736M340.072 251.386L340.079 251.367L342.088 246.434M340.072 251.386L340.064 251.367L337.52 244.897L340.028 241.38M342.088 246.434L340.028 241.38M340.028 241.38H355.974M366.833 251.386L366.84 251.367L368.815 246.434M366.833 251.386L366.824 251.367L363.664 244.897L366.266 241.38M368.815 246.434L366.266 241.38M393.594 251.386L393.601 251.367L395.542 246.434M393.594 251.386L393.583 251.367L389.807 244.897L392.504 241.38M395.542 246.434L392.504 241.38" stroke="black" stroke-linejoin="round"/>
<path d="M302.216 28.5641L343.183 22.9189Z" fill="#9DE3DB"/>
<path d="M306.476 98.5349L369.428 1.66301Z" fill="#9DE3DB"/>
<path d="M301.15 11.0703L301.504 16.8604L302.216 28.5641L343.183 22.9189L332.131 39.9247L305.411 81.0417L306.476 98.5349L369.428 1.66301L344.024 5.16362L301.15 11.0703Z" fill="#9DE3DB"/>
<path d="M332.131 39.9247L343.183 22.9189L302.216 28.5641M332.131 39.9247L305.411 81.0417L306.476 98.5349M332.131 39.9247L316.593 42.0655L302.216 28.5641M306.476 98.5349L309.036 100.939L320.854 112.037L333.668 92.3172L383.806 15.1651L369.428 1.66301M306.476 98.5349L369.428 1.66301M369.428 1.66301L344.024 5.16362L301.15 11.0703L301.504 16.8604M301.504 16.8604L301.316 16.9116M301.504 16.8604L302.216 28.5641" stroke="black" stroke-linejoin="round"/>
<path d="M302.216 28.5641L343.183 22.919Z" fill="#ECAFE2"/>
<path d="M306.476 98.5349L369.428 1.66304Z" fill="#ECAFE2"/>
<path d="M306.476 98.5349L309.036 100.939L320.854 112.037L333.668 92.3173L383.806 15.1651L369.428 1.66304L306.476 98.5349Z" fill="#ECAFE2"/>
<path d="M332.131 39.9247L343.183 22.919L302.216 28.5641L316.593 42.0656L332.131 39.9247Z" fill="#ECAFE2"/>
<path d="M302.216 28.5641L343.183 22.919Z" stroke="black" stroke-linejoin="round"/>
<path d="M306.476 98.5349L369.428 1.66304Z" stroke="black" stroke-linejoin="round"/>
<path d="M306.476 98.5349L309.036 100.939L320.854 112.037L333.668 92.3173L383.806 15.1651L369.428 1.66304L306.476 98.5349Z" stroke="black" stroke-linejoin="round"/>
<path d="M332.131 39.9247L343.183 22.919L302.216 28.5641L316.593 42.0656L332.131 39.9247Z" stroke="black" stroke-linejoin="round"/>
<path d="M154.473 190.589L113.471 195.975Z" fill="#ECAFE2"/>
<path d="M150.657 120.593L87.0916 217.064Z" fill="#ECAFE2"/>
<path d="M155.427 208.09L155.111 202.297L154.473 190.589L113.471 195.975L124.63 179.039L151.61 138.093L150.657 120.593L87.0916 217.064L112.517 213.724L155.427 208.09Z" fill="#ECAFE2"/>
<path d="M124.63 179.039L113.471 195.975L154.473 190.589M124.63 179.039L151.61 138.093L150.657 120.593M124.63 179.039L140.181 176.997L154.473 190.589M150.657 120.593L148.112 118.173L136.364 107L123.425 126.638L72.7994 203.471L87.0916 217.064M150.657 120.593L87.0916 217.064M87.0916 217.064L112.517 213.724L155.427 208.09L155.111 202.297M155.111 202.297L155.299 202.247M155.111 202.297L154.473 190.589" stroke="black" stroke-linejoin="round"/>
<path d="M154.473 190.589L113.471 195.975Z" fill="#9DE3DB"/>
<path d="M150.657 120.593L87.0916 217.064Z" fill="#9DE3DB"/>
<path d="M150.657 120.593L148.112 118.173L136.364 107L123.425 126.638L72.7994 203.471L87.0916 217.064L150.657 120.593Z" fill="#9DE3DB"/>
<path d="M124.63 179.039L113.471 195.975L154.473 190.589L140.181 176.997L124.63 179.039Z" fill="#9DE3DB"/>
<path d="M154.473 190.589L113.471 195.975Z" stroke="black" stroke-linejoin="round"/>
<path d="M150.657 120.593L87.0916 217.064Z" stroke="black" stroke-linejoin="round"/>
<path d="M150.657 120.593L148.112 118.173L136.364 107L123.425 126.638L72.7994 203.471L87.0916 217.064L150.657 120.593Z" stroke="black" stroke-linejoin="round"/>
<path d="M124.63 179.039L113.471 195.975L154.473 190.589L140.181 176.997L124.63 179.039Z" stroke="black" stroke-linejoin="round"/>
</g>
<defs>
<linearGradient id="paint0_linear" x1="229.5" y1="56.8957" x2="229.5" y2="239.303" gradientUnits="userSpaceOnUse">
<stop stop-color="#F5C890"/>
<stop offset="1" stop-color="#87317E"/>
</linearGradient>
<linearGradient id="paint1_linear" x1="229.5" y1="56.8957" x2="229.5" y2="239.303" gradientUnits="userSpaceOnUse">
<stop stop-color="#F5C890"/>
<stop offset="1" stop-color="#87317E"/>
</linearGradient>
<clipPath id="clip0">
<rect width="459" height="325" fill="white"/>
</clipPath>
</defs>
</svg>
